<svg width="107" height="162" viewBox="0 0 107 162" fill="none" xmlns="http://www.w3.org/2000/svg">
<path d="M48.5876 80.0708H57.4603L60.7875 161.444H45.8149L48.5876 80.0708Z" fill="url(#paint0_linear_385_1348)"/>
<circle cx="30.4367" cy="72.4182" r="30.4367" fill="url(#paint1_radial_385_1348)"/>
<circle cx="30.4367" cy="30.4367" r="30.4367" transform="matrix(-1 0 0 1 107 41.9814)" fill="url(#paint2_radial_385_1348)"/>
<circle cx="30.4367" cy="30.4367" r="30.4367" transform="matrix(-1 0 0 1 82.9341 0)" fill="url(#paint3_radial_385_1348)"/>
<g clip-path="url(#clip0_385_1348)">
<mask id="mask0_385_1348" style="mask-type:luminance" maskUnits="userSpaceOnUse" x="22" y="45" width="19" height="19">
<path d="M22.0605 45.124H40.1101V63.1736H22.0605V45.124Z" fill="white"/>
</mask>
<g mask="url(#mask0_385_1348)">
<path d="M33.9352 48.924C32.5103 48.924 32.5103 49.399 31.0853 49.399C29.6603 49.399 29.6603 48.924 28.2354 48.924C26.3354 48.924 23.9604 49.874 23.9604 53.1989C23.9604 58.4238 26.8104 62.6987 28.7103 62.6987C30.1353 62.6987 30.1353 62.2237 31.0853 62.2237C32.0353 62.2237 32.0353 62.6987 33.4602 62.6987C35.3602 62.6987 38.2101 58.4238 38.2101 53.1989C38.2101 49.874 35.8352 48.924 33.9352 48.924Z" fill="#FF4242"/>
<path d="M31.5601 48.9239C31.5601 48.9239 32.985 47.024 35.36 47.024C37.2599 47.024 38.2099 47.974 38.2099 47.974C38.2099 47.974 36.3099 49.3989 34.885 49.3989C33.46 49.3989 31.5601 48.9239 31.5601 48.9239Z" fill="#77B255"/>
<path d="M31.0849 50.3491C30.9589 50.3491 30.8381 50.2991 30.749 50.21C30.6599 50.1209 30.6099 50.0001 30.6099 49.8741C30.6099 48.2397 31.1798 46.7321 32.174 45.7384C32.2181 45.6943 32.2705 45.6593 32.3281 45.6354C32.3857 45.6115 32.4475 45.5992 32.5099 45.5991C32.5723 45.5991 32.6341 45.6114 32.6917 45.6352C32.7494 45.6591 32.8017 45.6941 32.8459 45.7382C32.89 45.7823 32.925 45.8346 32.9489 45.8923C32.9728 45.9499 32.9851 46.0117 32.9851 46.0741C32.9852 46.1364 32.9729 46.1982 32.949 46.2559C32.9252 46.3135 32.8902 46.3659 32.8461 46.41C32.0287 47.227 31.5598 48.4895 31.5598 49.8741C31.5598 50.0001 31.5098 50.1209 31.4207 50.21C31.3316 50.2991 31.2108 50.3491 31.0849 50.3491Z" fill="#662113"/>
</g>
</g>
<g clip-path="url(#clip1_385_1348)">
<mask id="mask1_385_1348" style="mask-type:luminance" maskUnits="userSpaceOnUse" x="61" y="63" width="19" height="19">
<path d="M61.168 63.1736H79.2176V81.2231H61.168V63.1736Z" fill="white"/>
</mask>
<g mask="url(#mask1_385_1348)">
<path d="M73.0426 66.9734C71.6177 66.9734 71.6177 67.4484 70.1927 67.4484C68.7677 67.4484 68.7677 66.9734 67.3428 66.9734C65.4428 66.9734 63.0679 67.9233 63.0679 71.2483C63.0679 76.4731 65.9178 80.748 67.8178 80.748C69.2427 80.748 69.2427 80.2731 70.1927 80.2731C71.1427 80.2731 71.1427 80.748 72.5677 80.748C74.4676 80.748 77.3175 76.4731 77.3175 71.2483C77.3175 67.9233 74.9426 66.9734 73.0426 66.9734Z" fill="#FF4242"/>
<path d="M70.6675 66.9735C70.6675 66.9735 72.0924 65.0735 74.4674 65.0735C76.3673 65.0735 77.3173 66.0235 77.3173 66.0235C77.3173 66.0235 75.4174 67.4485 73.9924 67.4485C72.5674 67.4485 70.6675 66.9735 70.6675 66.9735Z" fill="#77B255"/>
<path d="M70.1923 68.3987C70.0663 68.3987 69.9455 68.3486 69.8564 68.2596C69.7673 68.1705 69.7173 68.0497 69.7173 67.9237C69.7173 66.2893 70.2873 64.7816 71.2814 63.788C71.3255 63.7438 71.3779 63.7088 71.4355 63.6849C71.4931 63.661 71.5549 63.6487 71.6173 63.6487C71.6797 63.6487 71.7415 63.6609 71.7991 63.6848C71.8568 63.7086 71.9092 63.7436 71.9533 63.7877C71.9974 63.8318 72.0324 63.8842 72.0563 63.9418C72.0802 63.9994 72.0925 64.0612 72.0926 64.1236C72.0926 64.186 72.0803 64.2478 72.0565 64.3054C72.0326 64.3631 71.9976 64.4155 71.9535 64.4596C71.1361 65.2766 70.6673 66.5391 70.6673 67.9237C70.6673 68.0497 70.6172 68.1705 70.5281 68.2596C70.4391 68.3486 70.3182 68.3987 70.1923 68.3987Z" fill="#662113"/>
</g>
</g>
<g clip-path="url(#clip2_385_1348)">
<mask id="mask2_385_1348" style="mask-type:luminance" maskUnits="userSpaceOnUse" x="55" y="12" width="19" height="19">
<path d="M55.1816 12.677H73.2312V30.7266H55.1816V12.677Z" fill="white"/>
</mask>
<g mask="url(#mask2_385_1348)">
<path d="M67.0558 16.4768C65.6309 16.4768 65.6309 16.9518 64.2059 16.9518C62.7809 16.9518 62.7809 16.4768 61.356 16.4768C59.456 16.4768 57.0811 17.4268 57.0811 20.7517C57.0811 25.9766 59.931 30.2515 61.8309 30.2515C63.2559 30.2515 63.2559 29.7765 64.2059 29.7765C65.1559 29.7765 65.1559 30.2515 66.5808 30.2515C68.4808 30.2515 71.3307 25.9766 71.3307 20.7517C71.3307 17.4268 68.9558 16.4768 67.0558 16.4768Z" fill="#FF4242"/>
<path d="M64.6816 16.4769C64.6816 16.4769 66.1066 14.577 68.4816 14.577C70.3815 14.577 71.3315 15.5269 71.3315 15.5269C71.3315 15.5269 69.4315 16.9519 68.0066 16.9519C66.5816 16.9519 64.6816 16.4769 64.6816 16.4769Z" fill="#77B255"/>
<path d="M64.2059 17.9019C64.08 17.9019 63.9592 17.8518 63.8701 17.7627C63.781 17.6737 63.731 17.5528 63.731 17.4269C63.731 15.7924 64.3009 14.2848 65.2951 13.2911C65.3392 13.247 65.3916 13.212 65.4492 13.1881C65.5068 13.1642 65.5686 13.1519 65.631 13.1519C65.6934 13.1518 65.7552 13.1641 65.8128 13.188C65.8705 13.2118 65.9228 13.2468 65.967 13.2909C66.0111 13.335 66.0461 13.3874 66.07 13.445C66.0939 13.5026 66.1062 13.5644 66.1062 13.6268C66.1063 13.6892 66.094 13.751 66.0701 13.8086C66.0463 13.8663 66.0113 13.9186 65.9672 13.9628C65.1497 14.7798 64.6809 16.0423 64.6809 17.4269C64.6809 17.5528 64.6309 17.6737 64.5418 17.7627C64.4527 17.8518 64.3319 17.9019 64.2059 17.9019Z" fill="#662113"/>
</g>
</g>
<defs>
<linearGradient id="paint0_linear_385_1348" x1="53.3012" y1="80.0708" x2="53.3012" y2="161.444" gradientUnits="userSpaceOnUse">
<stop stop-color="#CD6200"/>
<stop offset="1" stop-color="#673100"/>
</linearGradient>
<radialGradient id="paint1_radial_385_1348" cx="0" cy="0" r="1" gradientUnits="userSpaceOnUse" gradientTransform="translate(15.3933 59.4738) rotate(70.8748) scale(45.9154)">
<stop stop-color="#B0FFA6"/>
<stop offset="1" stop-color="#00B982"/>
</radialGradient>
<radialGradient id="paint2_radial_385_1348" cx="0" cy="0" r="1" gradientUnits="userSpaceOnUse" gradientTransform="translate(15.3933 17.4924) rotate(70.8748) scale(45.9154)">
<stop stop-color="#B0FFA6"/>
<stop offset="1" stop-color="#00B982"/>
</radialGradient>
<radialGradient id="paint3_radial_385_1348" cx="0" cy="0" r="1" gradientUnits="userSpaceOnUse" gradientTransform="translate(15.3933 17.4924) rotate(70.8748) scale(45.9154)">
<stop stop-color="#B0FFA6"/>
<stop offset="1" stop-color="#00B982"/>
</radialGradient>
<clipPath id="clip0_385_1348">
<rect width="18.0496" height="18.0496" fill="white" transform="translate(22.0605 45.124)"/>
</clipPath>
<clipPath id="clip1_385_1348">
<rect width="18.0496" height="18.0496" fill="white" transform="translate(61.168 63.1736)"/>
</clipPath>
<clipPath id="clip2_385_1348">
<rect width="18.0496" height="18.0496" fill="white" transform="translate(55.1816 12.6768)"/>
</clipPath>
</defs>
</svg>
