<svg width="112" height="112" viewBox="0 0 112 112" fill="none" xmlns="http://www.w3.org/2000/svg">
<g clip-path="url(#clip0_435_497)">
<mask id="mask0_435_497" style="mask-type:luminance" maskUnits="userSpaceOnUse" x="0" y="0" width="112" height="112">
<path d="M0.660645 0.638428H111.252V111.23H0.660645V0.638428Z" fill="white"/>
</mask>
<g mask="url(#mask0_435_497)">
<path d="M73.4167 23.921C64.6858 23.921 64.6858 26.8313 55.9549 26.8313C47.2239 26.8313 47.2239 23.921 38.493 23.921C26.8518 23.921 12.3003 29.7416 12.3003 50.1137C12.3003 82.1271 29.7621 108.32 41.4033 108.32C50.1342 108.32 50.1342 105.41 55.9549 105.41C61.7755 105.41 61.7755 108.32 70.5064 108.32C82.1476 108.32 99.6094 82.1271 99.6094 50.1137C99.6094 29.7416 85.0579 23.921 73.4167 23.921Z" fill="#FF4242"/>
<path d="M58.8662 23.9212C58.8662 23.9212 67.5971 12.28 82.1486 12.28C93.7899 12.28 99.6105 18.1006 99.6105 18.1006C99.6105 18.1006 87.9692 26.8315 79.2383 26.8315C70.5074 26.8315 58.8662 23.9212 58.8662 23.9212Z" fill="#77B255"/>
<path d="M55.9533 32.6514C55.1814 32.6514 54.4412 32.3447 53.8954 31.799C53.3496 31.2532 53.043 30.5129 53.043 29.7411C53.043 19.7267 56.5353 10.4894 62.6266 4.40104C62.8968 4.13065 63.2176 3.91612 63.5707 3.76971C63.9239 3.6233 64.3023 3.54787 64.6846 3.54774C65.0669 3.5476 65.4454 3.62276 65.7986 3.76892C66.1519 3.91508 66.4728 4.12938 66.7432 4.39959C67.0136 4.66979 67.2281 4.99062 67.3746 5.34373C67.521 5.69684 67.5964 6.07533 67.5965 6.4576C67.5967 6.83986 67.5215 7.21841 67.3753 7.57163C67.2292 7.92485 67.0149 8.24582 66.7447 8.51622C61.736 13.5219 58.8636 21.2575 58.8636 29.7411C58.8636 30.5129 58.557 31.2532 58.0112 31.799C57.4654 32.3447 56.7251 32.6514 55.9533 32.6514Z" fill="#662113"/>
</g>
</g>
<defs>
<clipPath id="clip0_435_497">
<rect width="110.592" height="110.592" fill="white" transform="translate(0.660156 0.638672)"/>
</clipPath>
</defs>
</svg>
