<svg width="67" height="67" viewBox="0 0 67 67" fill="none" xmlns="http://www.w3.org/2000/svg">
<circle cx="33.5" cy="33.5" r="33.5" fill="#FFCD29"/>
<circle cx="33.5" cy="33.5" r="33.5" fill="#FFCD29"/>
<circle cx="33.5" cy="33.5" r="33.5" fill="#FFCD29"/>
<circle cx="33.5" cy="33.5" r="33.5" fill="#FFC329"/>
<circle cx="33.0649" cy="33.935" r="26.974" fill="#FFCD29"/>
<circle cx="33.0649" cy="33.935" r="26.974" fill="#FFCD29"/>
<circle cx="33.0649" cy="33.935" r="26.974" fill="#FFCD29"/>
<circle cx="33.0649" cy="33.935" r="26.974" fill="#FFD966"/>
<path d="M24.8235 47.0519V21.739H34.8102C36.7301 21.739 38.3657 22.1057 39.717 22.839C41.0684 23.5641 42.0983 24.5735 42.807 25.8672C43.5238 27.1526 43.8823 28.6358 43.8823 30.3167C43.8823 31.9976 43.5197 33.4808 42.7946 34.7662C42.0695 36.0517 41.0189 37.0528 39.6429 37.7697C38.275 38.4865 36.6188 38.845 34.6742 38.845H28.3089V34.5561H33.809C34.839 34.5561 35.6877 34.379 36.3552 34.0246C37.0308 33.6621 37.5335 33.1636 37.863 32.5291C38.2009 31.8864 38.3698 31.1489 38.3698 30.3167C38.3698 29.4762 38.2009 28.7429 37.863 28.1167C37.5335 27.4822 37.0308 26.9919 36.3552 26.6458C35.6795 26.2915 34.8225 26.1144 33.7843 26.1144H30.1753V47.0519H24.8235Z" fill="#FFB905"/>
</svg>
