<svg width="345" height="52" viewBox="0 0 345 52" fill="none" xmlns="http://www.w3.org/2000/svg">
<rect y="0.5" width="345" height="51" rx="10" fill="#3B6AE3"/>
<path d="M139.574 29.722H151.306V31.248H139.574V29.722ZM140.47 20.902H150.34V22.386H140.47V20.902ZM140.526 26.264H150.298V27.762H140.526V26.264ZM142.234 22.274H144.096V26.404H142.234V22.274ZM146.728 22.274H148.576V26.404H146.728V22.274ZM152.453 29.806H164.185V31.318H152.453V29.806ZM157.367 27.356H159.229V30.422H157.367V27.356ZM153.769 20.622H162.869V24.934H155.645V27.118H153.797V23.478H161.021V22.092H153.769V20.622ZM153.797 26.376H163.163V27.874H153.797V26.376ZM174.25 19.782H176.126V26.418H174.25V19.782ZM167.348 26.936H176.126V30.436H169.21V32.004H167.376V29.106H174.278V28.364H167.348V26.936ZM167.376 31.22H176.476V32.662H167.376V31.22ZM165.878 20.566H172.864V21.994H165.878V20.566ZM165.724 26.194L165.542 24.724C167.81 24.724 170.834 24.682 173.34 24.374L173.438 25.704C170.876 26.124 167.964 26.18 165.724 26.194ZM166.9 21.21H168.678V25.452H166.9V21.21ZM170.036 21.21H171.842V25.452H170.036V21.21ZM186.323 20.16H187.961V20.762C187.961 23.254 186.001 25.368 182.599 25.872L181.871 24.374C184.853 23.982 186.323 22.288 186.323 20.762V20.16ZM186.673 20.16H188.297V20.762C188.297 22.274 189.781 23.982 192.749 24.374L192.035 25.872C188.633 25.368 186.673 23.254 186.673 20.762V20.16ZM186.337 28H188.185V32.746H186.337V28ZM181.451 26.824H193.169V28.336H181.451V26.824ZM201.344 22.918H203.808V24.43H201.344V22.918ZM203.304 19.782H205.166V27.482H203.304V19.782ZM200.77 27.762C203.514 27.762 205.208 28.7 205.208 30.268C205.208 31.85 203.514 32.76 200.77 32.76C198.026 32.76 196.332 31.85 196.332 30.268C196.332 28.7 198.026 27.762 200.77 27.762ZM200.77 29.176C199.09 29.176 198.194 29.526 198.194 30.268C198.194 30.996 199.09 31.346 200.77 31.346C202.464 31.346 203.36 30.996 203.36 30.268C203.36 29.526 202.464 29.176 200.77 29.176ZM197.312 21.084H198.824V21.896C198.824 24.374 197.676 26.642 195.198 27.482L194.246 26.012C196.388 25.284 197.312 23.562 197.312 21.896V21.084ZM197.704 21.084H199.202V21.896C199.202 23.422 200.084 25.004 202.128 25.69L201.218 27.16C198.81 26.362 197.704 24.206 197.704 21.896V21.084ZM194.75 20.566H201.722V22.05H194.75V20.566Z" fill="white"/>
</svg>
