<svg width="30" height="31" viewBox="0 0 30 31" fill="none" xmlns="http://www.w3.org/2000/svg">
<path d="M3.75 12.8176C3.75 11.5376 4.78764 10.5 6.06763 10.5V10.5C6.94548 10.5 7.74799 10.004 8.14058 9.21885L9.16667 7.16667C9.43802 6.62397 9.57369 6.35262 9.76534 6.14465C10.0132 5.87568 10.3301 5.67983 10.6815 5.57841C10.9533 5.5 11.2566 5.5 11.8634 5.5H18.1366C18.7434 5.5 19.0467 5.5 19.3185 5.57841C19.6699 5.67983 19.9868 5.87568 20.2347 6.14465C20.4263 6.35262 20.562 6.62397 20.8333 7.16667L21.8594 9.21885C22.252 10.004 23.0545 10.5 23.9324 10.5V10.5C25.2124 10.5 26.25 11.5376 26.25 12.8176V19.5C26.25 22.3284 26.25 23.7426 25.3713 24.6213C24.4926 25.5 23.0784 25.5 20.25 25.5H9.75C6.92157 25.5 5.50736 25.5 4.62868 24.6213C3.75 23.7426 3.75 22.3284 3.75 19.5V12.8176Z" stroke="#149624"/>
<circle cx="15" cy="16.75" r="4.5" stroke="#149624"/>
</svg>
