<svg width="158" height="44" viewBox="0 0 158 44" fill="none" xmlns="http://www.w3.org/2000/svg">
<rect x="0.5" y="1" width="157" height="42" rx="5.5" fill="white" stroke="#3B6AE3"/>
<path d="M69.906 19.246H71.404V19.4C71.404 21.318 70.256 22.886 67.764 23.39L67.022 21.948C69.024 21.584 69.906 20.52 69.906 19.4V19.246ZM70.284 19.246H71.782V19.4C71.782 20.45 72.65 21.416 74.61 21.766L73.882 23.194C71.432 22.732 70.284 21.234 70.284 19.4V19.246ZM67.372 18.07H74.302V19.498H67.372V18.07ZM69.906 16.81H71.782V19.092H69.906V16.81ZM69.892 24.146H71.754V29.354H69.892V24.146ZM75.562 16.782H77.41V29.746H75.562V16.782ZM66.826 25.448L66.602 23.936C68.954 23.936 72.104 23.922 74.82 23.558L74.946 24.902C72.146 25.406 69.136 25.448 66.826 25.448ZM79.4529 26.708H91.1849V28.234H79.4529V26.708ZM84.3249 23.824H86.1729V27.114H84.3249V23.824ZM84.2549 17.496H85.8789V18.434C85.8789 21.192 83.8769 23.628 80.4889 24.244L79.7189 22.69C82.6729 22.214 84.2549 20.226 84.2549 18.434V17.496ZM84.6189 17.496H86.2429V18.434C86.2429 20.268 87.8249 22.214 90.7929 22.69L90.0229 24.244C86.6209 23.614 84.6189 21.234 84.6189 18.434V17.496Z" fill="#3B6AE3"/>
</svg>
