<svg width="158" height="43" viewBox="0 0 158 43" fill="none" xmlns="http://www.w3.org/2000/svg">
<rect x="0.5" y="0.5" width="157" height="42" rx="5.5" fill="white" stroke="#149624"/>
<path d="M69.906 18.746H71.404V18.9C71.404 20.818 70.256 22.386 67.764 22.89L67.022 21.448C69.024 21.084 69.906 20.02 69.906 18.9V18.746ZM70.284 18.746H71.782V18.9C71.782 19.95 72.65 20.916 74.61 21.266L73.882 22.694C71.432 22.232 70.284 20.734 70.284 18.9V18.746ZM67.372 17.57H74.302V18.998H67.372V17.57ZM69.906 16.31H71.782V18.592H69.906V16.31ZM69.892 23.646H71.754V28.854H69.892V23.646ZM75.562 16.282H77.41V29.246H75.562V16.282ZM66.826 24.948L66.602 23.436C68.954 23.436 72.104 23.422 74.82 23.058L74.946 24.402C72.146 24.906 69.136 24.948 66.826 24.948ZM79.4529 26.208H91.1849V27.734H79.4529V26.208ZM84.3249 23.324H86.1729V26.614H84.3249V23.324ZM84.2549 16.996H85.8789V17.934C85.8789 20.692 83.8769 23.128 80.4889 23.744L79.7189 22.19C82.6729 21.714 84.2549 19.726 84.2549 17.934V16.996ZM84.6189 16.996H86.2429V17.934C86.2429 19.768 87.8249 21.714 90.7929 22.19L90.0229 23.744C86.6209 23.114 84.6189 20.734 84.6189 17.934V16.996Z" fill="#149624"/>
</svg>
