<svg width="159" height="44" viewBox="0 0 159 44" fill="none" xmlns="http://www.w3.org/2000/svg">
<rect x="0.704834" y="0.5" width="158.295" height="42.6" rx="6" fill="#3B6AE3"/>
<path d="M72.916 18.952H76.22V20.422H72.916V18.952ZM72.916 21.738H76.276V23.208H72.916V21.738ZM75.548 16.796H77.41V26.358H75.548V16.796ZM68.828 28.038H77.69V29.522H68.828V28.038ZM68.828 25.42H70.704V28.892H68.828V25.42ZM67.106 17.636H68.954V19.61H71.418V17.636H73.238V24.328H67.106V17.636ZM68.954 21.024V22.858H71.418V21.024H68.954ZM85.6829 18.826H88.7209V20.31H85.6829V18.826ZM85.5849 21.514H88.6229V22.998H85.5849V21.514ZM88.4269 16.782H90.2889V24.244H88.4269V16.782ZM84.1989 17.664H86.1869C86.1869 21.192 84.1989 23.46 80.2649 24.538L79.5369 23.068C82.8269 22.214 84.1989 20.59 84.1989 18.56V17.664ZM80.2509 17.664H85.5009V19.148H80.2509V17.664ZM85.9909 24.412C88.6229 24.412 90.3729 25.42 90.3729 27.044C90.3729 28.668 88.6229 29.69 85.9909 29.69C83.3589 29.69 81.6089 28.668 81.6089 27.044C81.6089 25.42 83.3589 24.412 85.9909 24.412ZM85.9909 25.84C84.4089 25.84 83.4569 26.246 83.4569 27.044C83.4569 27.842 84.4089 28.234 85.9909 28.234C87.5869 28.234 88.5389 27.842 88.5389 27.044C88.5389 26.246 87.5869 25.84 85.9909 25.84Z" fill="white"/>
</svg>
