<svg width="159" height="43" viewBox="0 0 159 43" fill="none" xmlns="http://www.w3.org/2000/svg">
<rect x="0.705078" width="158.295" height="42.6" rx="6" fill="#149624"/>
<path d="M72.916 18.452H76.22V19.922H72.916V18.452ZM72.916 21.238H76.276V22.708H72.916V21.238ZM75.548 16.296H77.41V25.858H75.548V16.296ZM68.828 27.538H77.69V29.022H68.828V27.538ZM68.828 24.92H70.704V28.392H68.828V24.92ZM67.106 17.136H68.954V19.11H71.418V17.136H73.238V23.828H67.106V17.136ZM68.954 20.524V22.358H71.418V20.524H68.954ZM85.6829 18.326H88.7209V19.81H85.6829V18.326ZM85.5849 21.014H88.6229V22.498H85.5849V21.014ZM88.4269 16.282H90.2889V23.744H88.4269V16.282ZM84.1989 17.164H86.1869C86.1869 20.692 84.1989 22.96 80.2649 24.038L79.5369 22.568C82.8269 21.714 84.1989 20.09 84.1989 18.06V17.164ZM80.2509 17.164H85.5009V18.648H80.2509V17.164ZM85.9909 23.912C88.6229 23.912 90.3729 24.92 90.3729 26.544C90.3729 28.168 88.6229 29.19 85.9909 29.19C83.3589 29.19 81.6089 28.168 81.6089 26.544C81.6089 24.92 83.3589 23.912 85.9909 23.912ZM85.9909 25.34C84.4089 25.34 83.4569 25.746 83.4569 26.544C83.4569 27.342 84.4089 27.734 85.9909 27.734C87.5869 27.734 88.5389 27.342 88.5389 26.544C88.5389 25.746 87.5869 25.34 85.9909 25.34Z" fill="white"/>
</svg>
