<svg width="345" height="96" viewBox="0 0 345 96" fill="none" xmlns="http://www.w3.org/2000/svg">
<rect x="0.5" y="0.5" width="344" height="95" rx="12.5" fill="white" stroke="#3B6AE3"/>
<circle cx="38.5" cy="32.5" r="15.5" fill="#FFCD29"/>
<circle cx="38.5" cy="32.5" r="15.5" fill="#FFCD29"/>
<circle cx="38.5" cy="32.5" r="15.5" fill="#FFCD29"/>
<circle cx="38.5" cy="32.5" r="15.5" fill="#FFC329"/>
<circle cx="38.2986" cy="32.7012" r="12.4805" fill="#FFCD29"/>
<circle cx="38.2986" cy="32.7012" r="12.4805" fill="#FFCD29"/>
<circle cx="38.2986" cy="32.7012" r="12.4805" fill="#FFCD29"/>
<circle cx="38.2986" cy="32.7012" r="12.4805" fill="#FFD966"/>
<path d="M34.4855 38.0388V26.3269H39.1062C39.9945 26.3269 40.7513 26.4965 41.3765 26.8359C42.0018 27.1714 42.4783 27.6384 42.8062 28.2369C43.1379 28.8317 43.3037 29.5179 43.3037 30.2957C43.3037 31.0734 43.136 31.7597 42.8005 32.3544C42.465 32.9492 41.9789 33.4124 41.3422 33.7441C40.7093 34.0757 39.943 34.2416 39.0433 34.2416H36.0981V32.2572H38.643C39.1195 32.2572 39.5122 32.1752 39.821 32.0113C40.1336 31.8435 40.3662 31.6129 40.5187 31.3193C40.675 31.022 40.7532 30.6807 40.7532 30.2957C40.7532 29.9068 40.675 29.5675 40.5187 29.2777C40.3662 28.9842 40.1336 28.7573 39.821 28.5972C39.5084 28.4333 39.1119 28.3513 38.6315 28.3513H36.9617V38.0388H34.4855Z" fill="#FFB905"/>
</svg>
