<svg width="31" height="32" viewBox="0 0 31 32" fill="none" xmlns="http://www.w3.org/2000/svg">
<circle cx="15.5" cy="16" r="15.5" fill="#FFCD29"/>
<circle cx="15.5" cy="16" r="15.5" fill="#FFCD29"/>
<circle cx="15.5" cy="16" r="15.5" fill="#FFCD29"/>
<circle cx="15.5" cy="16" r="15.5" fill="#FFC329"/>
<circle cx="15.2989" cy="16.2012" r="12.4805" fill="#FFCD29"/>
<circle cx="15.2989" cy="16.2012" r="12.4805" fill="#FFCD29"/>
<circle cx="15.2989" cy="16.2012" r="12.4805" fill="#FFCD29"/>
<circle cx="15.2989" cy="16.2012" r="12.4805" fill="#FFD966"/>
<path d="M11.4857 21.5388V9.82689H16.1064C16.9947 9.82689 17.7515 9.99655 18.3768 10.3359C19.002 10.6714 19.4786 11.1384 19.8064 11.7369C20.1381 12.3317 20.304 13.0179 20.304 13.7957C20.304 14.5734 20.1362 15.2597 19.8007 15.8544C19.4652 16.4492 18.9791 16.9124 18.3424 17.2441C17.7096 17.5757 16.9433 17.7416 16.0435 17.7416H13.0984V15.7572H15.6432C16.1198 15.7572 16.5125 15.6752 16.8213 15.5113C17.1339 15.3435 17.3664 15.1129 17.5189 14.8193C17.6753 14.522 17.7534 14.1807 17.7534 13.7957C17.7534 13.4068 17.6753 13.0675 17.5189 12.7777C17.3664 12.4842 17.1339 12.2573 16.8213 12.0972C16.5086 11.9333 16.1121 11.8513 15.6318 11.8513H13.9619V21.5388H11.4857Z" fill="#FFB905"/>
</svg>
