<svg width="64" height="16" viewBox="0 0 64 16" fill="none" xmlns="http://www.w3.org/2000/svg">
<path d="M10.1 15.22C9.38 15.22 8.94 14.66 8.82 14C8.8 13.86 8.76 13.7 8.74 13.52C8.6 13.66 8.52 13.8 8.42 14C8.14 14.6 7.68 14.98 6.32 14.98C3.28 14.98 0.82 13.26 0.82 8.3C0.82 3.48 3.04 0.979999 7.06 0.979999C8.98 0.979999 10.86 1.48 11.78 2.68C12.12 3.12 12.2 3.86 11.46 4.34C10.94 4.68 10.14 4.82 9.7 4.32C9.14 3.68 8.44 3.42 7.26 3.42C4.84 3.42 3.6 5.28 3.6 8.28C3.6 9.7 3.58 12.28 7.04 12.28C7.44 12.28 8.04 12.18 8.62 12.02V11.52C8.62 10.72 8.6 10.08 8.6 9.28C8.3 9.28 8.02 9.3 7.8 9.3C6.76 9.32 5.94 9.18 5.94 8.2C5.94 7.5 6.58 6.98 7.78 6.98C9.04 6.98 10.98 7.06 12 7.08C12.62 7.1 13.02 7.46 13.02 8.02C13.02 8.64 12.56 9.48 11.7 9.34C11.58 9.32 11.46 9.3 11.32 9.3C11.32 10.4 11.38 12.64 11.36 13.7C11.34 14.56 10.8 15.22 10.1 15.22ZM20.3231 14.88C17.4231 14.88 14.0031 12.42 14.0031 8.1C14.0031 4.84 15.7631 1.06 20.4631 1.06C23.7031 1.06 26.4231 3.22 26.4231 8.1C26.4231 11.76 24.1031 14.88 20.3231 14.88ZM17.1231 8.08C17.1231 10.82 18.7631 12.04 20.3831 12.04C22.2631 12.04 23.4831 10.28 23.4831 7.9C23.4831 5.52 22.4631 3.6 20.2831 3.6C18.1231 3.6 17.1231 5.66 17.1231 8.08ZM29.9256 14.9C29.2456 14.9 28.9656 14.58 28.8456 13.28C28.7656 12.38 28.8056 2.92 28.8056 2.06C28.8056 1.44 29.1256 1.22 29.7856 1.18C32.2056 1.04 34.1456 0.9 36.2256 1.32C38.1656 1.72 39.0456 3.34 39.0456 5.12C39.0456 6.6 38.4056 7.66 37.2656 8.42C38.2256 10.58 38.8656 11.94 39.1856 12.7C39.5256 13.56 39.4456 14.34 38.7456 14.64C38.0456 14.96 37.2256 14.82 36.6056 13.68C36.1456 12.8 35.1256 10.9 34.4656 9.46C33.6656 9.6 32.8456 9.62 31.9656 9.56C31.6056 9.54 31.5456 9.82 31.5456 10.2C31.5256 11.54 31.4656 11.86 31.4656 13.14C31.4656 14.3 30.8656 14.9 29.9256 14.9ZM31.4456 3.72L31.4656 6.58C31.4656 6.96 31.5656 7 31.9256 7.04C33.2856 7.24 34.5056 7.16 35.2856 6.82C36.1056 6.44 36.3056 5.94 36.3056 5.2C36.3056 4.4 35.9256 3.68 34.9856 3.48C34.2056 3.32 32.8856 3.3 31.8256 3.4C31.5456 3.42 31.4456 3.5 31.4456 3.72ZM40.9433 14.66C40.2633 14.42 39.9433 13.8 40.2033 13.22C41.9633 9.22 43.9633 3.96 44.5233 2.62C45.0033 1.36 45.6233 0.859999 46.4833 0.859999C47.3433 0.859999 47.8033 1.2 48.4833 2.58C49.1633 3.94 52.0833 11.66 52.4233 12.68C52.7833 13.7 52.5033 14.4 51.8833 14.58C51.2633 14.78 50.4033 14.8 50.0233 14.02C49.6233 13.24 49.1833 12.18 48.8833 11.56C48.6633 11.12 48.4833 11.08 47.8233 11.08C47.1633 11.08 45.1233 11.14 44.7433 11.14C44.3833 11.14 44.1033 11.22 43.8033 11.82C43.5033 12.44 43.0033 13.42 42.6833 13.96C42.3833 14.5 41.6233 14.9 40.9433 14.66ZM45.1633 8.1C45.0433 8.4 45.1233 8.6 45.5033 8.64C45.9033 8.64 47.3033 8.62 47.5833 8.58C47.8433 8.54 47.7633 8.34 47.6633 8.1C47.3833 7.36 46.8033 5.36 46.5033 4.58C46.4433 4.4 46.3633 4.42 46.3033 4.58C45.9433 5.5 45.6633 6.76 45.1633 8.1ZM62.0111 14.38C61.1311 14.38 56.2111 14.32 55.8111 14.32C55.2511 14.32 54.4311 13.9 54.2711 13.08C54.2311 12.92 54.2711 12.58 54.3311 12.42C54.4711 12 54.4111 3.14 54.4111 2.28C54.4111 1.66 54.7111 1.44 55.3911 1.4C56.6911 1.32 61.3711 1.4 62.3111 1.48C63.1911 1.56 63.5711 2.16 63.5711 2.66C63.5711 3.14 63.1311 3.94 62.2311 3.92C60.7911 3.88 58.0711 3.74 57.4311 3.8C57.1511 3.82 57.0511 3.9 57.0511 4.14C57.0511 4.42 57.0711 5.36 57.0711 5.94C57.0711 6.3 57.1711 6.38 57.5311 6.4C58.0311 6.42 60.8311 6.52 61.7311 6.52C62.5711 6.52 62.9911 7.12 63.0111 7.68C63.0311 8.26 62.5911 8.9 61.6711 8.9C60.7911 8.9 58.0111 8.84 57.5111 8.88C57.1511 8.92 57.0911 9.12 57.0911 9.52C57.0911 9.92 57.0311 10.4 57.0111 11.38C56.9911 11.78 57.1911 11.84 57.4911 11.84L62.0911 11.82C63.2111 11.82 63.6511 12.34 63.6511 12.96C63.6511 13.6 63.0911 14.38 62.0111 14.38Z" fill="#375AC2"/>
</svg>
