<svg width="72" height="12" viewBox="0 0 72 12" fill="none" xmlns="http://www.w3.org/2000/svg">
<path d="M2.10189 1.08H9.08589V1.884H2.10189V1.08ZM0.937891 5.496H10.7299V6.3H0.937891V5.496ZM4.95789 3.468H5.94189V5.784H4.95789V3.468ZM8.50989 1.08H9.49389V1.992C9.49389 2.868 9.49389 3.756 9.19389 4.872L8.20989 4.764C8.50989 3.648 8.50989 2.844 8.50989 1.992V1.08ZM2.16189 7.488H9.48189V8.304H3.15789V10.92H2.16189V7.488ZM2.16189 10.464H9.62589V11.28H2.16189V10.464ZM21.684 0.576H22.692V11.448H21.684V0.576ZM22.452 4.86H24.468V5.7H22.452V4.86ZM14.808 7.908H15.66C17.664 7.908 19.068 7.836 20.688 7.536L20.796 8.376C19.128 8.688 17.7 8.748 15.66 8.748H14.808V7.908ZM14.808 1.632H19.848V2.448H15.792V8.28H14.808V1.632ZM27.747 1.524H28.563V3.468C28.563 5.964 27.219 8.28 25.443 9.18L24.831 8.364C26.439 7.596 27.747 5.52 27.747 3.468V1.524ZM27.915 1.524H28.731V3.468C28.731 5.448 30.027 7.44 31.635 8.184L31.035 8.976C29.271 8.112 27.915 5.88 27.915 3.468V1.524ZM32.763 0.576H33.759V11.448H32.763V0.576ZM38.7491 1.56H43.7291V6.588H38.7491V1.56ZM42.7571 2.364H39.7211V5.784H42.7571V2.364ZM45.7211 0.576H46.7171V8.532H45.7211V0.576ZM46.4051 3.888H48.3251V4.716H46.4051V3.888ZM39.9611 10.38H47.2091V11.196H39.9611V10.38ZM39.9611 7.776H40.9571V10.728H39.9611V7.776ZM56.9081 4.908H58.9121V5.748H56.9081V4.908ZM56.1761 0.576H57.1841V11.436H56.1761V0.576ZM49.2641 1.644H50.2601V8.364H49.2641V1.644ZM49.2641 7.848H50.1281C51.7361 7.848 53.3801 7.74 55.1681 7.368L55.2881 8.196C53.4401 8.58 51.7721 8.688 50.1281 8.688H49.2641V7.848ZM61.7832 6.168H62.7672V9.42H61.7832V6.168ZM65.7912 6.168H66.7872V9.42H65.7912V6.168ZM59.3832 9.228H69.2112V10.056H59.3832V9.228ZM64.2792 1.272C66.5712 1.272 68.2152 2.364 68.2152 4.068C68.2152 5.76 66.5712 6.852 64.2792 6.852C61.9752 6.852 60.3312 5.76 60.3312 4.068C60.3312 2.364 61.9752 1.272 64.2792 1.272ZM64.2792 2.064C62.5392 2.064 61.2912 2.856 61.2912 4.068C61.2912 5.268 62.5392 6.06 64.2792 6.06C66.0192 6.06 67.2552 5.268 67.2552 4.068C67.2552 2.856 66.0192 2.064 64.2792 2.064ZM71.5723 1.77273L71.487 8.04545H70.4984L70.4132 1.77273H71.5723ZM70.9927 10.5682C70.7825 10.5682 70.6021 10.4929 70.4515 10.3423C70.301 10.1918 70.2257 10.0114 70.2257 9.80114C70.2257 9.59091 70.301 9.41051 70.4515 9.25994C70.6021 9.10937 70.7825 9.03409 70.9927 9.03409C71.2029 9.03409 71.3833 9.10937 71.5339 9.25994C71.6845 9.41051 71.7598 9.59091 71.7598 9.80114C71.7598 9.94034 71.7243 10.0682 71.6532 10.1847C71.585 10.3011 71.4927 10.3949 71.3762 10.4659C71.2626 10.5341 71.1348 10.5682 70.9927 10.5682Z" fill="#149624"/>
</svg>
