<svg width="142" height="72" viewBox="0 0 142 72" fill="none" xmlns="http://www.w3.org/2000/svg">
<rect y="0.5" width="142" height="42.6" rx="6" fill="#149624"/>
<path d="M45.574 26.806H57.306V28.318H45.574V26.806ZM50.488 24.356H52.35V27.422H50.488V24.356ZM46.89 17.622H55.99V21.934H48.766V24.118H46.918V20.478H54.142V19.092H46.89V17.622ZM46.918 23.376H56.284V24.874H46.918V23.376ZM59.6429 17.972H67.8609V19.442H59.6429V17.972ZM58.4529 26.54H70.1709V28.052H58.4529V26.54ZM66.8809 17.972H68.7289V19.512C68.7289 21.332 68.7289 23.096 68.2669 25.756L66.4049 25.602C66.8809 23.11 66.8809 21.262 66.8809 19.512V17.972ZM74.7898 17.678C76.7638 17.678 78.1918 19.47 78.1918 22.298C78.1918 25.154 76.7638 26.946 74.7898 26.946C72.8158 26.946 71.3878 25.154 71.3878 22.298C71.3878 19.47 72.8158 17.678 74.7898 17.678ZM74.7898 19.372C73.8238 19.372 73.1798 20.394 73.1798 22.298C73.1798 24.23 73.8238 25.266 74.7898 25.266C75.7558 25.266 76.4138 24.23 76.4138 22.298C76.4138 20.394 75.7558 19.372 74.7898 19.372ZM79.6058 16.782H81.4818V29.746H79.6058V16.782ZM81.0618 21.668H83.3578V23.208H81.0618V21.668ZM84.1967 22.466H95.9287V23.964H84.1967V22.466ZM89.1107 23.124H90.9587V25.182H89.1107V23.124ZM89.0687 25.7H90.6507V25.924C90.6507 27.814 88.8867 29.396 85.5547 29.704L84.9527 28.304C87.7807 28.052 89.0687 26.918 89.0687 25.924V25.7ZM89.4047 25.7H90.9867V25.924C90.9867 26.988 92.2327 28.066 95.1027 28.304L94.5147 29.704C91.1967 29.396 89.4047 27.898 89.4047 25.924V25.7ZM90.0627 16.922C92.9327 16.922 94.7527 17.832 94.7527 19.372C94.7527 20.912 92.9327 21.822 90.0627 21.822C87.1927 21.822 85.3727 20.912 85.3727 19.372C85.3727 17.832 87.1927 16.922 90.0627 16.922ZM90.0627 18.308C88.2707 18.308 87.2907 18.658 87.2907 19.372C87.2907 20.058 88.2707 20.422 90.0627 20.422C91.8407 20.422 92.8347 20.058 92.8347 19.372C92.8347 18.658 91.8407 18.308 90.0627 18.308Z" fill="white"/>
</svg>
