<svg width="142" height="72" viewBox="0 0 142 72" fill="none" xmlns="http://www.w3.org/2000/svg">
<rect x="0.5" y="1" width="141" height="41.6" rx="5.5" fill="white" stroke="#149624"/>
<path d="M61.906 19.246H63.404V19.4C63.404 21.318 62.256 22.886 59.764 23.39L59.022 21.948C61.024 21.584 61.906 20.52 61.906 19.4V19.246ZM62.284 19.246H63.782V19.4C63.782 20.45 64.65 21.416 66.61 21.766L65.882 23.194C63.432 22.732 62.284 21.234 62.284 19.4V19.246ZM59.372 18.07H66.302V19.498H59.372V18.07ZM61.906 16.81H63.782V19.092H61.906V16.81ZM61.892 24.146H63.754V29.354H61.892V24.146ZM67.562 16.782H69.41V29.746H67.562V16.782ZM58.826 25.448L58.602 23.936C60.954 23.936 64.104 23.922 66.82 23.558L66.946 24.902C64.146 25.406 61.136 25.448 58.826 25.448ZM71.4529 26.708H83.1849V28.234H71.4529V26.708ZM76.3249 23.824H78.1729V27.114H76.3249V23.824ZM76.2549 17.496H77.8789V18.434C77.8789 21.192 75.8769 23.628 72.4889 24.244L71.7189 22.69C74.6729 22.214 76.2549 20.226 76.2549 18.434V17.496ZM76.6189 17.496H78.2429V18.434C78.2429 20.268 79.8249 22.214 82.7929 22.69L82.0229 24.244C78.6209 23.614 76.6189 21.234 76.6189 18.434V17.496Z" fill="#149624"/>
</svg>
