<svg width="345" height="52" viewBox="0 0 345 52" fill="none" xmlns="http://www.w3.org/2000/svg">
<rect y="0.5" width="345" height="51" rx="10" fill="#149624"/>
<path d="M151.174 21.3182H153.327V27.9304C153.327 28.6728 153.149 29.3224 152.795 29.8793C152.443 30.4361 151.951 30.8703 151.318 31.1818C150.685 31.4901 149.948 31.6442 149.106 31.6442C148.261 31.6442 147.522 31.4901 146.888 31.1818C146.255 30.8703 145.763 30.4361 145.412 29.8793C145.061 29.3224 144.885 28.6728 144.885 27.9304V21.3182H147.038V27.7464C147.038 28.1342 147.122 28.4789 147.291 28.7805C147.464 29.0821 147.705 29.3191 148.017 29.4915C148.329 29.6638 148.692 29.75 149.106 29.75C149.523 29.75 149.886 29.6638 150.195 29.4915C150.506 29.3191 150.746 29.0821 150.915 28.7805C151.088 28.4789 151.174 28.1342 151.174 27.7464V21.3182ZM155.098 31.5V21.3182H159.115C159.884 21.3182 160.54 21.4557 161.084 21.7308C161.631 22.0026 162.046 22.3887 162.331 22.8892C162.62 23.3864 162.764 23.9714 162.764 24.6442C162.764 25.3203 162.618 25.902 162.327 26.3892C162.035 26.8731 161.612 27.2443 161.059 27.5028C160.509 27.7614 159.842 27.8906 159.06 27.8906H156.371V26.1605H158.712C159.123 26.1605 159.465 26.1042 159.736 25.9915C160.008 25.8788 160.21 25.7098 160.343 25.4844C160.479 25.259 160.547 24.9789 160.547 24.6442C160.547 24.3061 160.479 24.0211 160.343 23.7891C160.21 23.5571 160.006 23.3814 159.731 23.2621C159.46 23.1394 159.117 23.0781 158.702 23.0781H157.251V31.5H155.098ZM160.596 26.8665L163.127 31.5H160.751L158.275 26.8665H160.596ZM164.285 31.5V21.3182H166.438V29.7251H170.803V31.5H164.285ZM175.144 26.18H186.862V27.678H175.144V26.18ZM180.058 24.528H181.92V26.502H180.058V24.528ZM176.446 28.56H185.448V32.746H183.586V30.03H176.446V28.56ZM176.642 20.104H178.476V21.252H183.53V20.104H185.378V25.116H176.642V20.104ZM178.476 22.638V23.66H183.53V22.638H178.476ZM190.935 20.776H192.447V22.666C192.447 25.872 191.327 28.882 188.877 30.086L187.757 28.588C189.941 27.566 190.935 25.074 190.935 22.666V20.776ZM191.313 20.776H192.797V22.666C192.797 24.99 193.721 27.356 195.793 28.364L194.673 29.848C192.335 28.658 191.313 25.774 191.313 22.666V20.776ZM196.311 19.782H198.187V32.746H196.311V19.782ZM197.767 24.766H200.063V26.32H197.767V24.766Z" fill="white"/>
</svg>
