<svg width="185" height="227" viewBox="0 0 185 227" fill="none" xmlns="http://www.w3.org/2000/svg">
<rect x="0.5" y="0.5" width="184" height="226" rx="13.5" fill="url(#paint0_linear_379_500)"/>
<path d="M89.4545 117.851H98.3028L101.621 199H86.6895L89.4545 117.851Z" fill="url(#paint1_linear_379_500)"/>
<circle cx="71.3531" cy="110.219" r="30.3531" fill="url(#paint2_radial_379_500)"/>
<circle cx="30.3531" cy="30.3531" r="30.3531" transform="matrix(-1 0 0 1 147.706 79.8663)" fill="url(#paint3_radial_379_500)"/>
<circle cx="30.3531" cy="30.3531" r="30.3531" transform="matrix(-1 0 0 1 123.706 38)" fill="url(#paint4_radial_379_500)"/>
<g clip-path="url(#clip0_379_500)">
<mask id="mask0_379_500" style="mask-type:luminance" maskUnits="userSpaceOnUse" x="63" y="83" width="18" height="18">
<path d="M63 83H81V101H63V83Z" fill="white"/>
</mask>
<g mask="url(#mask0_379_500)">
<path d="M74.8421 86.7895C73.4211 86.7895 73.4211 87.2632 72 87.2632C70.579 87.2632 70.579 86.7895 69.1579 86.7895C67.2632 86.7895 64.8948 87.7369 64.8948 91.0527C64.8948 96.2632 67.7369 100.526 69.6316 100.526C71.0527 100.526 71.0527 100.053 72 100.053C72.9474 100.053 72.9474 100.526 74.3685 100.526C76.2632 100.526 79.1053 96.2632 79.1053 91.0527C79.1053 87.7369 76.7369 86.7895 74.8421 86.7895Z" fill="#FF4242"/>
<path d="M72.4736 86.7895C72.4736 86.7895 73.8947 84.8948 76.2631 84.8948C78.1578 84.8948 79.1052 85.8421 79.1052 85.8421C79.1052 85.8421 77.2105 87.2632 75.7894 87.2632C74.3684 87.2632 72.4736 86.7895 72.4736 86.7895Z" fill="#77B255"/>
<path d="M72.0001 88.2106C71.8744 88.2106 71.7539 88.1607 71.6651 88.0718C71.5763 87.983 71.5264 87.8625 71.5264 87.7369C71.5264 86.1069 72.0948 84.6035 73.0862 83.6125C73.1302 83.5685 73.1824 83.5336 73.2399 83.5098C73.2974 83.4859 73.359 83.4737 73.4212 83.4736C73.4834 83.4736 73.545 83.4858 73.6025 83.5096C73.66 83.5334 73.7122 83.5683 73.7562 83.6123C73.8002 83.6563 73.8352 83.7085 73.859 83.766C73.8828 83.8234 73.8951 83.885 73.8951 83.9472C73.8951 84.0095 73.8829 84.0711 73.8591 84.1286C73.8353 84.1861 73.8005 84.2383 73.7565 84.2823C72.9413 85.097 72.4737 86.3561 72.4737 87.7369C72.4737 87.8625 72.4238 87.983 72.335 88.0718C72.2462 88.1607 72.1257 88.2106 72.0001 88.2106Z" fill="#662113"/>
</g>
</g>
<g clip-path="url(#clip1_379_500)">
<mask id="mask1_379_500" style="mask-type:luminance" maskUnits="userSpaceOnUse" x="99" y="56" width="18" height="18">
<path d="M99 56H117V74H99V56Z" fill="white"/>
</mask>
<g mask="url(#mask1_379_500)">
<path d="M110.842 59.7895C109.421 59.7895 109.421 60.2632 108 60.2632C106.579 60.2632 106.579 59.7895 105.158 59.7895C103.263 59.7895 100.895 60.7369 100.895 64.0527C100.895 69.2632 103.737 73.5264 105.632 73.5264C107.053 73.5264 107.053 73.0527 108 73.0527C108.947 73.0527 108.947 73.5264 110.368 73.5264C112.263 73.5264 115.105 69.2632 115.105 64.0527C115.105 60.7369 112.737 59.7895 110.842 59.7895Z" fill="#FF4242"/>
<path d="M108.474 59.7895C108.474 59.7895 109.895 57.8948 112.263 57.8948C114.158 57.8948 115.105 58.8421 115.105 58.8421C115.105 58.8421 113.21 60.2632 111.789 60.2632C110.368 60.2632 108.474 59.7895 108.474 59.7895Z" fill="#77B255"/>
<path d="M108 61.2106C107.874 61.2106 107.754 61.1607 107.665 61.0718C107.576 60.983 107.526 60.8625 107.526 60.7369C107.526 59.1069 108.095 57.6035 109.086 56.6125C109.13 56.5685 109.182 56.5336 109.24 56.5098C109.297 56.4859 109.359 56.4737 109.421 56.4736C109.483 56.4736 109.545 56.4858 109.602 56.5096C109.66 56.5334 109.712 56.5683 109.756 56.6123C109.8 56.6563 109.835 56.7085 109.859 56.766C109.883 56.8234 109.895 56.885 109.895 56.9472C109.895 57.0095 109.883 57.0711 109.859 57.1286C109.835 57.1861 109.8 57.2383 109.756 57.2823C108.941 58.097 108.474 59.3561 108.474 60.7369C108.474 60.8625 108.424 60.983 108.335 61.0718C108.246 61.1607 108.126 61.2106 108 61.2106Z" fill="#662113"/>
</g>
</g>
<g clip-path="url(#clip2_379_500)">
<mask id="mask2_379_500" style="mask-type:luminance" maskUnits="userSpaceOnUse" x="102" y="101" width="18" height="18">
<path d="M102 101H120V119H102V101Z" fill="white"/>
</mask>
<g mask="url(#mask2_379_500)">
<path d="M113.842 104.79C112.421 104.79 112.421 105.263 111 105.263C109.579 105.263 109.579 104.79 108.158 104.79C106.263 104.79 103.895 105.737 103.895 109.053C103.895 114.263 106.737 118.526 108.632 118.526C110.053 118.526 110.053 118.053 111 118.053C111.947 118.053 111.947 118.526 113.368 118.526C115.263 118.526 118.105 114.263 118.105 109.053C118.105 105.737 115.737 104.79 113.842 104.79Z" fill="#FF4242"/>
<path d="M111.474 104.789C111.474 104.789 112.895 102.895 115.263 102.895C117.158 102.895 118.105 103.842 118.105 103.842C118.105 103.842 116.21 105.263 114.789 105.263C113.368 105.263 111.474 104.789 111.474 104.789Z" fill="#77B255"/>
<path d="M111 106.211C110.874 106.211 110.754 106.161 110.665 106.072C110.576 105.983 110.526 105.863 110.526 105.737C110.526 104.107 111.095 102.603 112.086 101.613C112.13 101.569 112.182 101.534 112.24 101.51C112.297 101.486 112.359 101.474 112.421 101.474C112.483 101.474 112.545 101.486 112.602 101.51C112.66 101.533 112.712 101.568 112.756 101.612C112.8 101.656 112.835 101.708 112.859 101.766C112.883 101.823 112.895 101.885 112.895 101.947C112.895 102.009 112.883 102.071 112.859 102.129C112.835 102.186 112.8 102.238 112.756 102.282C111.941 103.097 111.474 104.356 111.474 105.737C111.474 105.863 111.424 105.983 111.335 106.072C111.246 106.161 111.126 106.211 111 106.211Z" fill="#662113"/>
</g>
</g>
<rect x="0.5" y="0.5" width="184" height="226" rx="13.5" stroke="#D5D5D5"/>
<defs>
<linearGradient id="paint0_linear_379_500" x1="92.5" y1="0" x2="92.5" y2="227" gradientUnits="userSpaceOnUse">
<stop stop-color="white"/>
<stop offset="1" stop-color="#D1FF4D"/>
</linearGradient>
<linearGradient id="paint1_linear_379_500" x1="94.1552" y1="117.851" x2="94.1552" y2="199" gradientUnits="userSpaceOnUse">
<stop stop-color="#CD6200"/>
<stop offset="1" stop-color="#673100"/>
</linearGradient>
<radialGradient id="paint2_radial_379_500" cx="0" cy="0" r="1" gradientUnits="userSpaceOnUse" gradientTransform="translate(56.351 97.3106) rotate(70.8748) scale(45.7893)">
<stop stop-color="#B0FFA6"/>
<stop offset="1" stop-color="#00B982"/>
</radialGradient>
<radialGradient id="paint3_radial_379_500" cx="0" cy="0" r="1" gradientUnits="userSpaceOnUse" gradientTransform="translate(15.351 17.4443) rotate(70.8748) scale(45.7893)">
<stop stop-color="#B0FFA6"/>
<stop offset="1" stop-color="#00B982"/>
</radialGradient>
<radialGradient id="paint4_radial_379_500" cx="0" cy="0" r="1" gradientUnits="userSpaceOnUse" gradientTransform="translate(15.351 17.4443) rotate(70.8748) scale(45.7893)">
<stop stop-color="#B0FFA6"/>
<stop offset="1" stop-color="#00B982"/>
</radialGradient>
<clipPath id="clip0_379_500">
<rect width="18" height="18" fill="white" transform="translate(63 83)"/>
</clipPath>
<clipPath id="clip1_379_500">
<rect width="18" height="18" fill="white" transform="translate(99 56)"/>
</clipPath>
<clipPath id="clip2_379_500">
<rect width="18" height="18" fill="white" transform="translate(102 101)"/>
</clipPath>
</defs>
</svg>
