<svg width="172" height="172" viewBox="0 0 172 172" fill="none" xmlns="http://www.w3.org/2000/svg">
<mask id="mask0_385_1459" style="mask-type:luminance" maskUnits="userSpaceOnUse" x="50" y="49" width="67" height="67">
<path d="M50 49H117V116H50V49Z" fill="white"/>
</mask>
<g mask="url(#mask0_385_1459)">
<path d="M94.0771 63.1048C88.7876 63.1048 88.7876 64.8679 83.4981 64.8679C78.2087 64.8679 78.2087 63.1048 72.9192 63.1048C65.8666 63.1048 57.0508 66.6311 57.0508 78.9732C57.0508 98.3679 67.6297 114.236 74.6824 114.236C79.9718 114.236 79.9718 112.473 83.4981 112.473C87.0245 112.473 87.0245 114.236 92.3139 114.236C99.3666 114.236 109.946 98.3679 109.946 78.9732C109.946 66.6311 101.13 63.1048 94.0771 63.1048Z" fill="#FF4242"/>
<path d="M85.2637 63.1053C85.2637 63.1053 90.5531 56.0526 99.3689 56.0526C106.422 56.0526 109.948 59.5789 109.948 59.5789C109.948 59.5789 102.895 64.8684 97.6058 64.8684C92.3163 64.8684 85.2637 63.1053 85.2637 63.1053Z" fill="#77B255"/>
<path d="M83.4975 68.3948C83.0299 68.3948 82.5814 68.209 82.2508 67.8784C81.9201 67.5477 81.7344 67.0992 81.7344 66.6316C81.7344 60.5646 83.8502 54.9683 87.5405 51.2798C87.7042 51.116 87.8985 50.986 88.1124 50.8973C88.3264 50.8086 88.5557 50.7629 88.7873 50.7628C89.0189 50.7628 89.2482 50.8083 89.4622 50.8968C89.6762 50.9854 89.8706 51.1152 90.0344 51.2789C90.1983 51.4426 90.3282 51.637 90.4169 51.8509C90.5056 52.0648 90.5513 52.2941 90.5514 52.5257C90.5515 52.7573 90.5059 52.9867 90.4174 53.2006C90.3289 53.4146 90.199 53.6091 90.0353 53.7729C87.0009 56.8055 85.2607 61.492 85.2607 66.6316C85.2607 67.0992 85.0749 67.5477 84.7443 67.8784C84.4136 68.209 83.9652 68.3948 83.4975 68.3948Z" fill="#662113"/>
</g>
<g filter="url(#filter0_d_385_1459)">
<circle cx="84" cy="82" r="71" fill="black" fill-opacity="0.5" shape-rendering="crispEdges"/>
</g>
<path d="M96.5 71.25H92.1688L90.0391 68.0563C89.925 67.8852 89.7704 67.745 89.5892 67.648C89.408 67.551 89.2056 67.5001 89 67.5H79C78.7944 67.5001 78.592 67.551 78.4108 67.648C78.2296 67.745 78.075 67.8852 77.9609 68.0563L75.8297 71.25H71.5C70.5054 71.25 69.5516 71.6451 68.8483 72.3483C68.1451 73.0516 67.75 74.0054 67.75 75V92.5C67.75 93.4946 68.1451 94.4484 68.8483 95.1517C69.5516 95.8549 70.5054 96.25 71.5 96.25H96.5C97.4946 96.25 98.4484 95.8549 99.1517 95.1517C99.8549 94.4484 100.25 93.4946 100.25 92.5V75C100.25 74.0054 99.8549 73.0516 99.1517 72.3483C98.4484 71.6451 97.4946 71.25 96.5 71.25ZM97.75 92.5C97.75 92.8315 97.6183 93.1495 97.3839 93.3839C97.1495 93.6183 96.8315 93.75 96.5 93.75H71.5C71.1685 93.75 70.8505 93.6183 70.6161 93.3839C70.3817 93.1495 70.25 92.8315 70.25 92.5V75C70.25 74.6685 70.3817 74.3505 70.6161 74.1161C70.8505 73.8817 71.1685 73.75 71.5 73.75H76.5C76.7058 73.7501 76.9085 73.6994 77.0901 73.6024C77.2716 73.5054 77.4264 73.365 77.5406 73.1938L79.6687 70H88.3297L90.4594 73.1938C90.5736 73.365 90.7284 73.5054 90.9099 73.6024C91.0915 73.6994 91.2942 73.7501 91.5 73.75H96.5C96.8315 73.75 97.1495 73.8817 97.3839 74.1161C97.6183 74.3505 97.75 74.6685 97.75 75V92.5ZM84 76.25C82.6403 76.25 81.311 76.6532 80.1805 77.4086C79.0499 78.1641 78.1687 79.2378 77.6483 80.4941C77.128 81.7503 76.9918 83.1326 77.2571 84.4662C77.5224 85.7999 78.1772 87.0249 79.1386 87.9864C80.1001 88.9478 81.3251 89.6026 82.6588 89.8679C83.9924 90.1332 85.3747 89.997 86.6309 89.4767C87.8872 88.9563 88.9609 88.0751 89.7164 86.9445C90.4718 85.814 90.875 84.4847 90.875 83.125C90.8729 81.3023 90.1479 79.5548 88.8591 78.2659C87.5702 76.9771 85.8227 76.2521 84 76.25ZM84 87.5C83.1347 87.5 82.2888 87.2434 81.5694 86.7627C80.8499 86.2819 80.2892 85.5987 79.958 84.7992C79.6269 83.9998 79.5403 83.1201 79.7091 82.2715C79.8779 81.4228 80.2946 80.6433 80.9064 80.0314C81.5183 79.4196 82.2978 79.0029 83.1465 78.8341C83.9951 78.6653 84.8748 78.7519 85.6742 79.083C86.4737 79.4142 87.1569 79.9749 87.6377 80.6944C88.1184 81.4138 88.375 82.2597 88.375 83.125C88.375 84.2853 87.9141 85.3981 87.0936 86.2186C86.2731 87.0391 85.1603 87.5 84 87.5Z" fill="#F8F8F8"/>
<defs>
<filter id="filter0_d_385_1459" x="0" y="0" width="172" height="172" filterUnits="userSpaceOnUse" color-interpolation-filters="sRGB">
<feFlood flood-opacity="0" result="BackgroundImageFix"/>
<feColorMatrix in="SourceAlpha" type="matrix" values="0 0 0 0 0 0 0 0 0 0 0 0 0 0 0 0 0 0 127 0" result="hardAlpha"/>
<feOffset dx="2" dy="4"/>
<feGaussianBlur stdDeviation="7.5"/>
<feComposite in2="hardAlpha" operator="out"/>
<feColorMatrix type="matrix" values="0 0 0 0 0 0 0 0 0 0 0 0 0 0 0 0 0 0 0.15 0"/>
<feBlend mode="normal" in2="BackgroundImageFix" result="effect1_dropShadow_385_1459"/>
<feBlend mode="normal" in="SourceGraphic" in2="effect1_dropShadow_385_1459" result="shape"/>
</filter>
</defs>
</svg>
