<svg width="121" height="14" viewBox="0 0 121 14" fill="none" xmlns="http://www.w3.org/2000/svg">
<path d="M0.0613047 10.806H11.7933V12.318H0.0613047V10.806ZM4.9753 8.356H6.83731V11.422H4.9753V8.356ZM1.3773 1.622H10.4773V5.934H3.25331V8.118H1.4053V4.478H8.62931V3.092H1.3773V1.622ZM1.4053 7.376H10.7713V8.874H1.4053V7.376ZM13.6302 1.972H21.8482V3.442H13.6302V1.972ZM12.4402 10.54H24.1582V12.052H12.4402V10.54ZM20.8682 1.972H22.7162V3.512C22.7162 5.332 22.7162 7.096 22.2542 9.756L20.3922 9.602C20.8682 7.11 20.8682 5.262 20.8682 3.512V1.972ZM28.2771 1.678C30.2511 1.678 31.6791 3.47 31.6791 6.298C31.6791 9.154 30.2511 10.946 28.2771 10.946C26.3031 10.946 24.8751 9.154 24.8751 6.298C24.8751 3.47 26.3031 1.678 28.2771 1.678ZM28.2771 3.372C27.3111 3.372 26.6671 4.394 26.6671 6.298C26.6671 8.23 27.3111 9.266 28.2771 9.266C29.2431 9.266 29.9011 8.23 29.9011 6.298C29.9011 4.394 29.2431 3.372 28.2771 3.372ZM33.0931 0.782H34.9691V13.746H33.0931V0.782ZM34.5491 5.668H36.8451V7.208H34.5491V5.668ZM37.184 6.466H48.916V7.964H37.184V6.466ZM42.098 7.124H43.946V9.182H42.098V7.124ZM42.056 9.7H43.638V9.924C43.638 11.814 41.874 13.396 38.542 13.704L37.94 12.304C40.768 12.052 42.056 10.918 42.056 9.924V9.7ZM42.392 9.7H43.974V9.924C43.974 10.988 45.22 12.066 48.09 12.304L47.502 13.704C44.184 13.396 42.392 11.898 42.392 9.924V9.7ZM43.05 0.922C45.92 0.922 47.74 1.832 47.74 3.372C47.74 4.912 45.92 5.822 43.05 5.822C40.18 5.822 38.36 4.912 38.36 3.372C38.36 1.832 40.18 0.922 43.05 0.922ZM43.05 2.308C41.258 2.308 40.278 2.658 40.278 3.372C40.278 4.058 41.258 4.422 43.05 4.422C44.828 4.422 45.822 4.058 45.822 3.372C45.822 2.658 44.828 2.308 43.05 2.308ZM60.6192 0.782H62.4672V13.746H60.6192V0.782ZM62.0472 5.836H64.3432V7.39H62.0472V5.836ZM52.2472 2.7H59.7932V4.184H52.2472V2.7ZM56.0412 4.912C57.9312 4.912 59.3312 6.2 59.3312 8.006C59.3312 9.812 57.9312 11.1 56.0412 11.1C54.1512 11.1 52.7512 9.812 52.7512 8.006C52.7512 6.2 54.1512 4.912 56.0412 4.912ZM56.0412 6.424C55.1592 6.424 54.5292 7.012 54.5292 8.006C54.5292 9 55.1592 9.588 56.0412 9.588C56.9232 9.588 57.5532 9 57.5532 8.006C57.5532 7.012 56.9232 6.424 56.0412 6.424ZM55.1032 0.992H56.9652V3.26H55.1032V0.992ZM67.8461 1.776H69.3581V3.666C69.3581 6.998 68.2101 10.008 65.6341 11.198L64.5281 9.658C66.7821 8.678 67.8461 6.186 67.8461 3.666V1.776ZM68.2101 1.776H69.7221V3.666C69.7221 6.06 70.7441 8.44 72.9561 9.392L71.8641 10.89C69.3581 9.742 68.2101 6.858 68.2101 3.666V1.776ZM73.5721 0.767999H75.4481V13.774H73.5721V0.767999ZM80.869 1.664H82.745C82.745 4.94 81.289 7.152 77.971 8.524L77.061 7.166C79.763 6.102 80.869 4.534 80.869 2.336V1.664ZM77.733 1.664H81.597V3.162H77.733V1.664ZM86.343 0.782H88.107V8.146H86.343V0.782ZM81.233 4.156H83.977V5.626H81.233V4.156ZM83.711 1.034H85.447V7.978H83.711V1.034ZM80.057 8.552H81.443V9.126C81.443 11.1 80.575 12.906 78.545 13.648L77.635 12.29C79.329 11.702 80.057 10.4 80.057 9.126V8.552ZM80.519 8.552H81.849V9.126C81.849 10.4 82.479 11.73 84.075 12.402L83.319 13.76C81.261 12.99 80.519 11.044 80.519 9.126V8.552ZM84.761 8.552H86.091V9.126C86.091 10.932 85.335 12.962 83.319 13.76L82.535 12.402C84.131 11.674 84.761 10.274 84.761 9.126V8.552ZM85.195 8.552H86.595V9.126C86.595 10.484 87.309 11.758 89.003 12.29L88.107 13.648C86.049 12.934 85.195 11.184 85.195 9.126V8.552ZM92.9959 1.678C94.9279 1.678 96.3419 3.47 96.3419 6.298C96.3419 9.154 94.9279 10.946 92.9959 10.946C91.0499 10.946 89.6499 9.154 89.6499 6.298C89.6499 3.47 91.0499 1.678 92.9959 1.678ZM92.9959 3.372C92.0579 3.372 91.4279 4.394 91.4279 6.298C91.4279 8.23 92.0579 9.266 92.9959 9.266C93.9479 9.266 94.5639 8.23 94.5639 6.298C94.5639 4.394 93.9479 3.372 92.9959 3.372ZM98.4699 0.767999H100.318V13.774H98.4699V0.767999ZM95.7959 5.444H99.2539V6.942H95.7959V5.444ZM104.409 7.362H106.257V11.002H104.409V7.362ZM109.113 7.362H110.975V11.002H109.113V7.362ZM101.833 10.736H113.565V12.248H101.833V10.736ZM107.685 1.412C110.471 1.412 112.529 2.784 112.529 4.898C112.529 7.012 110.471 8.37 107.685 8.37C104.885 8.37 102.841 7.012 102.841 4.898C102.841 2.784 104.885 1.412 107.685 1.412ZM107.685 2.868C105.879 2.868 104.675 3.61 104.675 4.898C104.675 6.172 105.879 6.928 107.685 6.928C109.491 6.928 110.695 6.172 110.695 4.898C110.695 3.61 109.491 2.868 107.685 2.868ZM116.302 9.44744V9.27841C116.306 8.69839 116.357 8.23603 116.457 7.89134C116.559 7.54664 116.708 7.26823 116.904 7.05611C117.1 6.84399 117.335 6.65175 117.61 6.4794C117.815 6.34683 117.999 6.20928 118.162 6.06676C118.324 5.92424 118.454 5.76681 118.55 5.59446C118.646 5.4188 118.694 5.22325 118.694 5.00781C118.694 4.77912 118.639 4.5786 118.53 4.40625C118.42 4.2339 118.273 4.10133 118.087 4.00852C117.905 3.91572 117.703 3.86932 117.481 3.86932C117.265 3.86932 117.061 3.91738 116.869 4.01349C116.677 4.1063 116.52 4.2455 116.397 4.43111C116.274 4.6134 116.208 4.84044 116.198 5.11222H114.17C114.186 4.44934 114.345 3.90246 114.647 3.47159C114.949 3.03741 115.348 2.71425 115.845 2.50213C116.342 2.28669 116.891 2.17898 117.491 2.17898C118.15 2.17898 118.734 2.28835 119.241 2.5071C119.748 2.72254 120.146 3.03575 120.434 3.44673C120.722 3.85772 120.866 4.35322 120.866 4.93324C120.866 5.32102 120.802 5.66572 120.672 5.96733C120.547 6.26562 120.369 6.53078 120.141 6.76278C119.912 6.99148 119.642 7.19863 119.33 7.38423C119.068 7.54001 118.853 7.70241 118.684 7.87145C118.518 8.04048 118.394 8.23603 118.311 8.4581C118.231 8.68016 118.19 8.9536 118.187 9.27841V9.44744H116.302ZM117.287 12.6293C116.955 12.6293 116.672 12.5133 116.437 12.2812C116.205 12.0459 116.09 11.7642 116.094 11.4361C116.09 11.1113 116.205 10.8329 116.437 10.6009C116.672 10.3688 116.955 10.2528 117.287 10.2528C117.602 10.2528 117.878 10.3688 118.117 10.6009C118.356 10.8329 118.477 11.1113 118.48 11.4361C118.477 11.6548 118.419 11.8554 118.306 12.0376C118.197 12.2166 118.052 12.3608 117.873 12.4702C117.695 12.5762 117.499 12.6293 117.287 12.6293Z" fill="#184BCE"/>
</svg>
