<svg width="102" height="24" viewBox="0 0 102 24" fill="none" xmlns="http://www.w3.org/2000/svg">
<path d="M0.6 13.764H10.428V14.592H0.6V13.764ZM4.98 10.956H5.976V14.136H4.98V10.956ZM1.452 6.12H9.504V6.936H1.452V6.12ZM1.476 10.488H9.492V11.292H1.476V10.488ZM3.144 6.78H4.14V10.632H3.144V6.78ZM6.84 6.78H7.824V10.632H6.84V6.78ZM19.5231 5.1H20.5311V13.02H19.5231V5.1ZM13.5591 14.88H20.8551V15.696H13.5591V14.88ZM13.5591 12.204H14.5431V15.156H13.5591V12.204ZM14.7111 5.844C16.3311 5.844 17.5311 6.948 17.5311 8.52C17.5311 10.08 16.3311 11.196 14.7111 11.196C13.0911 11.196 11.8791 10.08 11.8791 8.52C11.8791 6.948 13.0911 5.844 14.7111 5.844ZM14.7111 6.708C13.6551 6.708 12.8511 7.452 12.8511 8.52C12.8511 9.576 13.6551 10.32 14.7111 10.32C15.7671 10.32 16.5711 9.576 16.5711 8.52C16.5711 7.452 15.7671 6.708 14.7111 6.708ZM23.9381 10.932H31.3901V11.736H23.9381V10.932ZM22.6781 13.716H32.5061V14.544H22.6781V13.716ZM23.9381 6.012H31.2701V6.828H24.9461V11.184H23.9381V6.012ZM24.6221 8.436H31.0421V9.228H24.6221V8.436ZM39.7442 6.024H40.5602V7.968C40.5602 10.368 39.2642 12.708 37.5482 13.62L36.9362 12.828C38.5082 12.036 39.7442 9.948 39.7442 7.968V6.024ZM39.9242 6.024H40.7282V7.968C40.7282 9.876 41.9402 11.856 43.4762 12.624L42.8642 13.416C41.1842 12.516 39.9242 10.296 39.9242 7.968V6.024ZM44.4242 5.088H45.4322V15.936H44.4242V5.088ZM45.1922 9.48H47.2082V10.32H45.1922V9.48ZM50.5433 8.76H51.5273V10.812H50.5433V8.76ZM54.5273 8.76H55.5113V10.812H54.5273V8.76ZM48.1193 10.452H57.9233V11.256H48.1193V10.452ZM53.0153 12.072C55.3433 12.072 56.7353 12.756 56.7353 13.992C56.7353 15.228 55.3433 15.924 53.0153 15.924C50.6873 15.924 49.2952 15.228 49.2952 13.992C49.2952 12.756 50.6873 12.072 53.0153 12.072ZM53.0153 12.84C51.3233 12.84 50.3033 13.26 50.3033 13.992C50.3033 14.736 51.3233 15.144 53.0153 15.144C54.7193 15.144 55.7273 14.736 55.7273 13.992C55.7273 13.26 54.7193 12.84 53.0153 12.84ZM53.0273 5.28C55.3793 5.28 56.8433 6.036 56.8433 7.308C56.8433 8.568 55.3793 9.312 53.0273 9.312C50.6633 9.312 49.2113 8.568 49.2113 7.308C49.2113 6.036 50.6633 5.28 53.0273 5.28ZM53.0273 6.06C51.2993 6.06 50.2313 6.516 50.2313 7.308C50.2313 8.088 51.2993 8.544 53.0273 8.544C54.7553 8.544 55.8233 8.088 55.8233 7.308C55.8233 6.516 54.7553 6.06 53.0273 6.06ZM66.5143 5.088H67.5103V15.936H66.5143V5.088ZM67.2703 9.54H69.2863V10.38H67.2703V9.54ZM59.1103 6.816H65.5063V7.632H59.1103V6.816ZM62.3503 8.532C63.8863 8.532 64.9903 9.564 64.9903 11.028C64.9903 12.492 63.8863 13.524 62.3503 13.524C60.8263 13.524 59.7103 12.492 59.7103 11.028C59.7103 9.564 60.8263 8.532 62.3503 8.532ZM62.3503 9.36C61.3663 9.36 60.6583 10.044 60.6583 11.028C60.6583 12 61.3663 12.696 62.3503 12.696C63.3343 12.696 64.0423 12 64.0423 11.028C64.0423 10.044 63.3343 9.36 62.3503 9.36ZM61.8343 5.22H62.8303V7.188H61.8343V5.22ZM78.1054 5.088H79.1014V15.936H78.1054V5.088ZM74.9254 6.252H75.9094C75.9094 9.396 74.4934 12.144 70.8694 13.92L70.3414 13.116C73.4734 11.604 74.9254 9.3 74.9254 6.42V6.252ZM70.8334 6.252H75.3574V7.068H70.8334V6.252Z" fill="#3B6AE3"/>
<path d="M87 6L93 12L87 18" stroke="#3B6AE3"/>
<line x1="1" y1="19.5" x2="81" y2="19.5" stroke="#3B6AE3"/>
</svg>
