<svg width="31" height="31" viewBox="0 0 31 31" fill="none" xmlns="http://www.w3.org/2000/svg">
<circle cx="15.5" cy="15.5" r="15.5" fill="#FFCD29"/>
<circle cx="15.5" cy="15.5" r="15.5" fill="#FFCD29"/>
<circle cx="15.5" cy="15.5" r="15.5" fill="#FFCD29"/>
<circle cx="15.5" cy="15.5" r="15.5" fill="#FFC329"/>
<circle cx="15.2989" cy="15.7012" r="12.4805" fill="#FFCD29"/>
<circle cx="15.2989" cy="15.7012" r="12.4805" fill="#FFCD29"/>
<circle cx="15.2989" cy="15.7012" r="12.4805" fill="#FFCD29"/>
<circle cx="15.2989" cy="15.7012" r="12.4805" fill="#FFD966"/>
<path d="M11.4857 21.0389V9.32701H16.1064C16.9947 9.32701 17.7515 9.49667 18.3768 9.83598C19.002 10.1715 19.4786 10.6385 19.8064 11.2371C20.1381 11.8318 20.304 12.5181 20.304 13.2958C20.304 14.0735 20.1362 14.7598 19.8007 15.3545C19.4652 15.9493 18.9791 16.4125 18.3424 16.7442C17.7096 17.0759 16.9433 17.2417 16.0435 17.2417H13.0984V15.2573H15.6432C16.1198 15.2573 16.5125 15.1754 16.8213 15.0114C17.1339 14.8437 17.3664 14.613 17.5189 14.3195C17.6753 14.0221 17.7534 13.6809 17.7534 13.2958C17.7534 12.9069 17.6753 12.5676 17.5189 12.2779C17.3664 11.9843 17.1339 11.7575 16.8213 11.5973C16.5086 11.4334 16.1121 11.3514 15.6318 11.3514H13.9619V21.0389H11.4857Z" fill="#FFB905"/>
</svg>
