<svg width="102" height="25" viewBox="0 0 102 25" fill="none" xmlns="http://www.w3.org/2000/svg">
<path d="M0.6 14.264H10.428V15.092H0.6V14.264ZM4.98 11.456H5.976V14.636H4.98V11.456ZM1.452 6.62H9.504V7.436H1.452V6.62ZM1.476 10.988H9.492V11.792H1.476V10.988ZM3.144 7.28H4.14V11.132H3.144V7.28ZM6.84 7.28H7.824V11.132H6.84V7.28ZM19.5231 5.6H20.5311V13.52H19.5231V5.6ZM13.5591 15.38H20.8551V16.196H13.5591V15.38ZM13.5591 12.704H14.5431V15.656H13.5591V12.704ZM14.7111 6.344C16.3311 6.344 17.5311 7.448 17.5311 9.02C17.5311 10.58 16.3311 11.696 14.7111 11.696C13.0911 11.696 11.8791 10.58 11.8791 9.02C11.8791 7.448 13.0911 6.344 14.7111 6.344ZM14.7111 7.208C13.6551 7.208 12.8511 7.952 12.8511 9.02C12.8511 10.076 13.6551 10.82 14.7111 10.82C15.7671 10.82 16.5711 10.076 16.5711 9.02C16.5711 7.952 15.7671 7.208 14.7111 7.208ZM23.9381 11.432H31.3901V12.236H23.9381V11.432ZM22.6781 14.216H32.5061V15.044H22.6781V14.216ZM23.9381 6.512H31.2701V7.328H24.9461V11.684H23.9381V6.512ZM24.6221 8.936H31.0421V9.728H24.6221V8.936ZM39.7442 6.524H40.5602V8.468C40.5602 10.868 39.2642 13.208 37.5482 14.12L36.9362 13.328C38.5082 12.536 39.7442 10.448 39.7442 8.468V6.524ZM39.9242 6.524H40.7282V8.468C40.7282 10.376 41.9402 12.356 43.4762 13.124L42.8642 13.916C41.1842 13.016 39.9242 10.796 39.9242 8.468V6.524ZM44.4242 5.588H45.4322V16.436H44.4242V5.588ZM45.1922 9.98H47.2082V10.82H45.1922V9.98ZM50.5433 9.26H51.5273V11.312H50.5433V9.26ZM54.5273 9.26H55.5113V11.312H54.5273V9.26ZM48.1193 10.952H57.9233V11.756H48.1193V10.952ZM53.0153 12.572C55.3433 12.572 56.7353 13.256 56.7353 14.492C56.7353 15.728 55.3433 16.424 53.0153 16.424C50.6873 16.424 49.2952 15.728 49.2952 14.492C49.2952 13.256 50.6873 12.572 53.0153 12.572ZM53.0153 13.34C51.3233 13.34 50.3033 13.76 50.3033 14.492C50.3033 15.236 51.3233 15.644 53.0153 15.644C54.7193 15.644 55.7273 15.236 55.7273 14.492C55.7273 13.76 54.7193 13.34 53.0153 13.34ZM53.0273 5.78C55.3793 5.78 56.8433 6.536 56.8433 7.808C56.8433 9.068 55.3793 9.812 53.0273 9.812C50.6633 9.812 49.2113 9.068 49.2113 7.808C49.2113 6.536 50.6633 5.78 53.0273 5.78ZM53.0273 6.56C51.2993 6.56 50.2313 7.016 50.2313 7.808C50.2313 8.588 51.2993 9.044 53.0273 9.044C54.7553 9.044 55.8233 8.588 55.8233 7.808C55.8233 7.016 54.7553 6.56 53.0273 6.56ZM66.5143 5.588H67.5103V16.436H66.5143V5.588ZM67.2703 10.04H69.2863V10.88H67.2703V10.04ZM59.1103 7.316H65.5063V8.132H59.1103V7.316ZM62.3503 9.032C63.8863 9.032 64.9903 10.064 64.9903 11.528C64.9903 12.992 63.8863 14.024 62.3503 14.024C60.8263 14.024 59.7103 12.992 59.7103 11.528C59.7103 10.064 60.8263 9.032 62.3503 9.032ZM62.3503 9.86C61.3663 9.86 60.6583 10.544 60.6583 11.528C60.6583 12.5 61.3663 13.196 62.3503 13.196C63.3343 13.196 64.0423 12.5 64.0423 11.528C64.0423 10.544 63.3343 9.86 62.3503 9.86ZM61.8343 5.72H62.8303V7.688H61.8343V5.72ZM78.1054 5.588H79.1014V16.436H78.1054V5.588ZM74.9254 6.752H75.9094C75.9094 9.896 74.4934 12.644 70.8694 14.42L70.3414 13.616C73.4734 12.104 74.9254 9.8 74.9254 6.92V6.752ZM70.8334 6.752H75.3574V7.568H70.8334V6.752Z" fill="#149624"/>
<path d="M87 6.5L93 12.5L87 18.5" stroke="#149624"/>
<line x1="1" y1="20" x2="81" y2="20" stroke="#149624"/>
</svg>
