<svg width="95" height="19" viewBox="0 0 95 19" fill="none" xmlns="http://www.w3.org/2000/svg">
<path d="M0.82 14.46H17.58V16.64H0.82V14.46ZM2.1 1.86H16.2V3.98H2.1V1.86ZM2.18 9.52H16.14V11.66H2.18V9.52ZM4.62 3.82H7.28V9.72H4.62V3.82ZM11.04 3.82H13.68V9.72H11.04V3.82ZM19.2184 14.58H35.9784V16.74H19.2184V14.58ZM26.2384 11.08H28.8984V15.46H26.2384V11.08ZM21.0984 1.46H34.0984V7.62H23.7784V10.74H21.1384V5.54H31.4584V3.56H21.0984V1.46ZM21.1384 9.68H34.5184V11.82H21.1384V9.68ZM50.3569 0.26H53.0369V9.74H50.3569V0.26ZM40.4969 10.48H53.0369V15.48H43.1569V17.72H40.5369V13.58H50.3969V12.52H40.4969V10.48ZM40.5369 16.6H53.5369V18.66H40.5369V16.6ZM38.3969 1.38H48.3769V3.42H38.3969V1.38ZM38.1769 9.42L37.9169 7.32C41.1569 7.32 45.4769 7.26 49.0569 6.82L49.1969 8.72C45.5369 9.32 41.3769 9.4 38.1769 9.42ZM39.8569 2.3H42.3969V8.36H39.8569V2.3ZM44.3369 2.3H46.9169V8.36H44.3369V2.3ZM67.6042 0.799999H69.9442V1.66C69.9442 5.22 67.1442 8.24 62.2842 8.96L61.2442 6.82C65.5042 6.26 67.6042 3.84 67.6042 1.66V0.799999ZM68.1042 0.799999H70.4242V1.66C70.4242 3.82 72.5442 6.26 76.7842 6.82L75.7642 8.96C70.9042 8.24 68.1042 5.22 68.1042 1.66V0.799999ZM67.6242 12H70.2642V18.78H67.6242V12ZM60.6442 10.32H77.3842V12.48H60.6442V10.32ZM89.0627 4.74H92.5827V6.9H89.0627V4.74ZM91.8627 0.26H94.5227V11.26H91.8627V0.26ZM88.2427 11.66C92.1627 11.66 94.5827 13 94.5827 15.24C94.5827 17.5 92.1627 18.8 88.2427 18.8C84.3227 18.8 81.9027 17.5 81.9027 15.24C81.9027 13 84.3227 11.66 88.2427 11.66ZM88.2427 13.68C85.8427 13.68 84.5627 14.18 84.5627 15.24C84.5627 16.28 85.8427 16.78 88.2427 16.78C90.6627 16.78 91.9427 16.28 91.9427 15.24C91.9427 14.18 90.6627 13.68 88.2427 13.68ZM83.3027 2.12H85.4627V3.28C85.4627 6.82 83.8227 10.06 80.2827 11.26L78.9227 9.16C81.9827 8.12 83.3027 5.66 83.3027 3.28V2.12ZM83.8627 2.12H86.0027V3.28C86.0027 5.46 87.2627 7.72 90.1827 8.7L88.8827 10.8C85.4427 9.66 83.8627 6.58 83.8627 3.28V2.12ZM79.6427 1.38H89.6027V3.5H79.6427V1.38Z" fill="#3B6AE3"/>
</svg>
