<svg width="172" height="173" viewBox="0 0 172 173" fill="none" xmlns="http://www.w3.org/2000/svg">
<g filter="url(#filter0_d_385_719)">
<circle cx="84" cy="82.5" r="71" fill="white"/>
</g>
<mask id="mask0_385_719" style="mask-type:luminance" maskUnits="userSpaceOnUse" x="50" y="49" width="67" height="67">
<path d="M50 49H117V116H50V49Z" fill="white"/>
</mask>
<g mask="url(#mask0_385_719)">
<path d="M94.0771 63.1048C88.7876 63.1048 88.7876 64.8679 83.4981 64.8679C78.2087 64.8679 78.2087 63.1048 72.9192 63.1048C65.8666 63.1048 57.0508 66.6311 57.0508 78.9732C57.0508 98.3679 67.6297 114.236 74.6824 114.236C79.9718 114.236 79.9718 112.473 83.4981 112.473C87.0245 112.473 87.0245 114.236 92.3139 114.236C99.3666 114.236 109.946 98.3679 109.946 78.9732C109.946 66.6311 101.13 63.1048 94.0771 63.1048Z" fill="#FF4242"/>
<path d="M85.2637 63.1053C85.2637 63.1053 90.5531 56.0526 99.3689 56.0526C106.422 56.0526 109.948 59.5789 109.948 59.5789C109.948 59.5789 102.895 64.8684 97.6058 64.8684C92.3163 64.8684 85.2637 63.1053 85.2637 63.1053Z" fill="#77B255"/>
<path d="M83.4975 68.3948C83.0299 68.3948 82.5814 68.209 82.2508 67.8784C81.9201 67.5477 81.7344 67.0992 81.7344 66.6316C81.7344 60.5646 83.8502 54.9683 87.5405 51.2798C87.7042 51.116 87.8985 50.986 88.1124 50.8973C88.3264 50.8086 88.5557 50.7629 88.7873 50.7628C89.0189 50.7628 89.2482 50.8083 89.4622 50.8968C89.6762 50.9854 89.8706 51.1152 90.0344 51.2789C90.1983 51.4426 90.3282 51.637 90.4169 51.8509C90.5056 52.0648 90.5513 52.2941 90.5514 52.5257C90.5515 52.7573 90.5059 52.9867 90.4174 53.2006C90.3289 53.4146 90.199 53.6091 90.0353 53.7729C87.0009 56.8055 85.2607 61.492 85.2607 66.6316C85.2607 67.0992 85.0749 67.5477 84.7443 67.8784C84.4136 68.209 83.9652 68.3948 83.4975 68.3948Z" fill="#662113"/>
</g>
<defs>
<filter id="filter0_d_385_719" x="0" y="0.5" width="172" height="172" filterUnits="userSpaceOnUse" color-interpolation-filters="sRGB">
<feFlood flood-opacity="0" result="BackgroundImageFix"/>
<feColorMatrix in="SourceAlpha" type="matrix" values="0 0 0 0 0 0 0 0 0 0 0 0 0 0 0 0 0 0 127 0" result="hardAlpha"/>
<feOffset dx="2" dy="4"/>
<feGaussianBlur stdDeviation="7.5"/>
<feComposite in2="hardAlpha" operator="out"/>
<feColorMatrix type="matrix" values="0 0 0 0 0 0 0 0 0 0 0 0 0 0 0 0 0 0 0.15 0"/>
<feBlend mode="normal" in2="BackgroundImageFix" result="effect1_dropShadow_385_719"/>
<feBlend mode="normal" in="SourceGraphic" in2="effect1_dropShadow_385_719" result="shape"/>
</filter>
</defs>
</svg>
