<svg width="95" height="20" viewBox="0 0 95 20" fill="none" xmlns="http://www.w3.org/2000/svg">
<path d="M0.82 14.96H17.58V17.14H0.82V14.96ZM2.1 2.36H16.2V4.48H2.1V2.36ZM2.18 10.02H16.14V12.16H2.18V10.02ZM4.62 4.32H7.28V10.22H4.62V4.32ZM11.04 4.32H13.68V10.22H11.04V4.32ZM19.2184 15.08H35.9784V17.24H19.2184V15.08ZM26.2384 11.58H28.8984V15.96H26.2384V11.58ZM21.0984 1.96H34.0984V8.12H23.7784V11.24H21.1384V6.04H31.4584V4.06H21.0984V1.96ZM21.1384 10.18H34.5184V12.32H21.1384V10.18ZM50.3569 0.76H53.0369V10.24H50.3569V0.76ZM40.4969 10.98H53.0369V15.98H43.1569V18.22H40.5369V14.08H50.3969V13.02H40.4969V10.98ZM40.5369 17.1H53.5369V19.16H40.5369V17.1ZM38.3969 1.88H48.3769V3.92H38.3969V1.88ZM38.1769 9.92L37.9169 7.82C41.1569 7.82 45.4769 7.76 49.0569 7.32L49.1969 9.22C45.5369 9.82 41.3769 9.9 38.1769 9.92ZM39.8569 2.8H42.3969V8.86H39.8569V2.8ZM44.3369 2.8H46.9169V8.86H44.3369V2.8ZM67.6042 1.3H69.9442V2.16C69.9442 5.72 67.1442 8.74 62.2842 9.46L61.2442 7.32C65.5042 6.76 67.6042 4.34 67.6042 2.16V1.3ZM68.1042 1.3H70.4242V2.16C70.4242 4.32 72.5442 6.76 76.7842 7.32L75.7642 9.46C70.9042 8.74 68.1042 5.72 68.1042 2.16V1.3ZM67.6242 12.5H70.2642V19.28H67.6242V12.5ZM60.6442 10.82H77.3842V12.98H60.6442V10.82ZM89.0627 5.24H92.5827V7.4H89.0627V5.24ZM91.8627 0.76H94.5227V11.76H91.8627V0.76ZM88.2427 12.16C92.1627 12.16 94.5827 13.5 94.5827 15.74C94.5827 18 92.1627 19.3 88.2427 19.3C84.3227 19.3 81.9027 18 81.9027 15.74C81.9027 13.5 84.3227 12.16 88.2427 12.16ZM88.2427 14.18C85.8427 14.18 84.5627 14.68 84.5627 15.74C84.5627 16.78 85.8427 17.28 88.2427 17.28C90.6627 17.28 91.9427 16.78 91.9427 15.74C91.9427 14.68 90.6627 14.18 88.2427 14.18ZM83.3027 2.62H85.4627V3.78C85.4627 7.32 83.8227 10.56 80.2827 11.76L78.9227 9.66C81.9827 8.62 83.3027 6.16 83.3027 3.78V2.62ZM83.8627 2.62H86.0027V3.78C86.0027 5.96 87.2627 8.22 90.1827 9.2L88.8827 11.3C85.4427 10.16 83.8627 7.08 83.8627 3.78V2.62ZM79.6427 1.88H89.6027V4H79.6427V1.88Z" fill="#149624"/>
</svg>
