<svg width="185" height="227" viewBox="0 0 185 227" fill="none" xmlns="http://www.w3.org/2000/svg">
<rect x="0.5" y="0.5" width="184" height="226" rx="13.5" fill="black" fill-opacity="0.6"/>
<path d="M100.5 118H99.25V115.5C99.25 112.05 96.45 109.25 93 109.25C89.55 109.25 86.75 112.05 86.75 115.5V118H85.5C84.125 118 83 119.125 83 120.5V133C83 134.375 84.125 135.5 85.5 135.5H100.5C101.875 135.5 103 134.375 103 133V120.5C103 119.125 101.875 118 100.5 118ZM89.25 115.5C89.25 113.425 90.925 111.75 93 111.75C95.075 111.75 96.75 113.425 96.75 115.5V118H89.25V115.5ZM100.5 133H85.5V120.5H100.5V133ZM93 129.25C94.375 129.25 95.5 128.125 95.5 126.75C95.5 125.375 94.375 124.25 93 124.25C91.625 124.25 90.5 125.375 90.5 126.75C90.5 128.125 91.625 129.25 93 129.25Z" fill="#F8F8F8"/>
<path d="M89.1512 93.1558V91.6519L92.6652 88.3982C92.964 88.109 93.2147 87.8487 93.4171 87.6173C93.6228 87.386 93.7786 87.1594 93.8847 86.9377C93.9907 86.7128 94.0437 86.4701 94.0437 86.2098C94.0437 85.9206 93.9779 85.6716 93.8461 85.4627C93.7144 85.2506 93.5344 85.0883 93.3062 84.9759C93.0781 84.8602 92.8194 84.8023 92.5302 84.8023C92.2281 84.8023 91.9646 84.8634 91.7397 84.9855C91.5147 85.1076 91.3412 85.2828 91.2191 85.5109C91.097 85.7391 91.0359 86.0106 91.0359 86.3255H89.0548C89.0548 85.6796 89.201 85.1189 89.4935 84.6433C89.7859 84.1677 90.1956 83.7997 90.7226 83.5395C91.2496 83.2792 91.857 83.149 92.5447 83.149C93.2516 83.149 93.867 83.2743 94.3908 83.525C94.9178 83.7724 95.3275 84.1163 95.6199 84.5565C95.9124 84.9968 96.0586 85.5013 96.0586 86.0701C96.0586 86.4428 95.9847 86.8108 95.8369 87.1739C95.6922 87.537 95.4336 87.9403 95.0608 88.3838C94.688 88.824 94.1626 89.3526 93.4846 89.9696L92.0434 91.3819V91.4494H96.1887V93.1558H89.1512ZM101.572 93.3727C100.743 93.3695 100.029 93.1654 99.4315 92.7605C98.837 92.3556 98.3791 91.7691 98.0578 91.0011C97.7396 90.2331 97.5822 89.3092 97.5854 88.2295C97.5854 87.153 97.7444 86.2356 98.0626 85.4772C98.3839 84.7188 98.8418 84.142 99.4363 83.7467C100.034 83.3483 100.746 83.149 101.572 83.149C102.398 83.149 103.108 83.3483 103.702 83.7467C104.3 84.1452 104.759 84.7236 105.081 85.482C105.402 86.2372 105.561 87.153 105.558 88.2295C105.558 89.3125 105.397 90.2379 105.076 91.006C104.758 91.774 104.302 92.3604 103.707 92.7653C103.113 93.1702 102.401 93.3727 101.572 93.3727ZM101.572 91.6422C102.137 91.6422 102.589 91.3578 102.926 90.789C103.264 90.2203 103.431 89.3671 103.427 88.2295C103.427 87.4808 103.35 86.8574 103.196 86.3593C103.045 85.8612 102.83 85.4868 102.55 85.2362C102.274 84.9855 101.948 84.8602 101.572 84.8602C101.009 84.8602 100.559 85.1414 100.222 85.7037C99.8846 86.2661 99.7143 87.108 99.7111 88.2295C99.7111 88.9879 99.7866 89.6209 99.9376 90.1287C100.092 90.6332 100.309 91.0124 100.588 91.2662C100.868 91.5169 101.196 91.6422 101.572 91.6422ZM110.917 93.3727C110.088 93.3695 109.374 93.1654 108.777 92.7605C108.182 92.3556 107.724 91.7691 107.403 91.0011C107.085 90.2331 106.927 89.3092 106.931 88.2295C106.931 87.153 107.09 86.2356 107.408 85.4772C107.729 84.7188 108.187 84.142 108.782 83.7467C109.379 83.3483 110.091 83.149 110.917 83.149C111.743 83.149 112.453 83.3483 113.047 83.7467C113.645 84.1452 114.105 84.7236 114.426 85.482C114.747 86.2372 114.906 87.153 114.903 88.2295C114.903 89.3125 114.742 90.2379 114.421 91.006C114.103 91.774 113.647 92.3604 113.052 92.7653C112.458 93.1702 111.746 93.3727 110.917 93.3727ZM110.917 91.6422C111.482 91.6422 111.934 91.3578 112.271 90.789C112.609 90.2203 112.776 89.3671 112.773 88.2295C112.773 87.4808 112.696 86.8574 112.541 86.3593C112.39 85.8612 112.175 85.4868 111.895 85.2362C111.619 84.9855 111.293 84.8602 110.917 84.8602C110.355 84.8602 109.905 85.1414 109.567 85.7037C109.23 86.2661 109.059 87.108 109.056 88.2295C109.056 88.9879 109.132 89.6209 109.283 90.1287C109.437 90.6332 109.654 91.0124 109.934 91.2662C110.213 91.5169 110.541 91.6422 110.917 91.6422ZM116.449 93.1558V83.284H120.344C121.093 83.284 121.731 83.427 122.258 83.713C122.785 83.9958 123.186 84.3894 123.463 84.8939C123.742 85.3952 123.882 85.9737 123.882 86.6292C123.882 87.2848 123.741 87.8632 123.458 88.3645C123.175 88.8658 122.765 89.2562 122.229 89.5358C121.695 89.8154 121.049 89.9551 120.291 89.9551H117.809V88.2825H119.954C120.355 88.2825 120.686 88.2134 120.946 88.0753C121.21 87.9339 121.406 87.7395 121.535 87.492C121.666 87.2414 121.732 86.9538 121.732 86.6292C121.732 86.3014 121.666 86.0154 121.535 85.7712C121.406 85.5238 121.21 85.3326 120.946 85.1976C120.683 85.0594 120.349 84.9903 119.944 84.9903H118.536V93.1558H116.449Z" fill="white"/>
<circle cx="71.5196" cy="87.5196" r="10.5196" fill="#FFCD29"/>
<circle cx="71.5196" cy="87.5196" r="10.5196" fill="#FFCD29"/>
<circle cx="71.5196" cy="87.5196" r="10.5196" fill="#FFCD29"/>
<circle cx="71.5196" cy="87.5196" r="10.5196" fill="#FFC329"/>
<circle cx="71.3829" cy="87.6561" r="8.47034" fill="#FFCD29"/>
<circle cx="71.3829" cy="87.6561" r="8.47034" fill="#FFCD29"/>
<circle cx="71.3829" cy="87.6561" r="8.47034" fill="#FFCD29"/>
<circle cx="71.3829" cy="87.6561" r="8.47034" fill="#FFD966"/>
<path d="M68.7951 91.0985V83.1498H71.9311C72.534 83.1498 73.0476 83.2649 73.472 83.4952C73.8963 83.7229 74.2197 84.0399 74.4423 84.4461C74.6674 84.8498 74.7799 85.3155 74.7799 85.8434C74.7799 86.3712 74.6661 86.8369 74.4384 87.2406C74.2107 87.6442 73.8808 87.9586 73.4487 88.1837C73.0191 88.4088 72.4991 88.5214 71.8884 88.5214H69.8896V87.1746H71.6167C71.9402 87.1746 72.2067 87.119 72.4163 87.0077C72.6284 86.8939 72.7863 86.7373 72.8898 86.5381C72.9959 86.3363 73.0489 86.1047 73.0489 85.8434C73.0489 85.5794 72.9959 85.3492 72.8898 85.1525C72.7863 84.9533 72.6284 84.7993 72.4163 84.6906C72.2041 84.5794 71.935 84.5238 71.609 84.5238H70.4757V91.0985H68.7951Z" fill="#FFB905"/>
<rect x="0.5" y="0.5" width="184" height="226" rx="13.5" stroke="#D5D5D5"/>
</svg>
