<svg width="345" height="52" viewBox="0 0 345 52" fill="none" xmlns="http://www.w3.org/2000/svg">
<rect x="0.5" y="1" width="344" height="50" rx="9.5" fill="white" stroke="#3B6AE3"/>
<path d="M147.574 29.806H159.306V31.318H147.574V29.806ZM152.488 27.356H154.35V30.422H152.488V27.356ZM148.89 20.622H157.99V24.934H150.766V27.118H148.918V23.478H156.142V22.092H148.89V20.622ZM148.918 26.376H158.284V27.874H148.918V26.376ZM161.643 20.972H169.861V22.442H161.643V20.972ZM160.453 29.54H172.171V31.052H160.453V29.54ZM168.881 20.972H170.729V22.512C170.729 24.332 170.729 26.096 170.267 28.756L168.405 28.602C168.881 26.11 168.881 24.262 168.881 22.512V20.972ZM176.79 20.678C178.764 20.678 180.192 22.47 180.192 25.298C180.192 28.154 178.764 29.946 176.79 29.946C174.816 29.946 173.388 28.154 173.388 25.298C173.388 22.47 174.816 20.678 176.79 20.678ZM176.79 22.372C175.824 22.372 175.18 23.394 175.18 25.298C175.18 27.23 175.824 28.266 176.79 28.266C177.756 28.266 178.414 27.23 178.414 25.298C178.414 23.394 177.756 22.372 176.79 22.372ZM181.606 19.782H183.482V32.746H181.606V19.782ZM183.062 24.668H185.358V26.208H183.062V24.668ZM186.197 25.466H197.929V26.964H186.197V25.466ZM191.111 26.124H192.959V28.182H191.111V26.124ZM191.069 28.7H192.651V28.924C192.651 30.814 190.887 32.396 187.555 32.704L186.953 31.304C189.781 31.052 191.069 29.918 191.069 28.924V28.7ZM191.405 28.7H192.987V28.924C192.987 29.988 194.233 31.066 197.103 31.304L196.515 32.704C193.197 32.396 191.405 30.898 191.405 28.924V28.7ZM192.063 19.922C194.933 19.922 196.753 20.832 196.753 22.372C196.753 23.912 194.933 24.822 192.063 24.822C189.193 24.822 187.373 23.912 187.373 22.372C187.373 20.832 189.193 19.922 192.063 19.922ZM192.063 21.308C190.271 21.308 189.291 21.658 189.291 22.372C189.291 23.058 190.271 23.422 192.063 23.422C193.841 23.422 194.835 23.058 194.835 22.372C194.835 21.658 193.841 21.308 192.063 21.308Z" fill="#3B6AE3"/>
</svg>
